<?xml version="1.0" encoding="utf-8"?>
<!-- Generator: Adobe Illustrator 25.0.0, SVG Export Plug-In . SVG Version: 6.00 Build 0)  -->
<svg version="1.1" id="Layer_1" xmlns="http://www.w3.org/2000/svg" xmlns:xlink="http://www.w3.org/1999/xlink" x="0px" y="0px"
	 viewBox="0 0 24 24" style="enable-background:new 0 0 24 24;" xml:space="preserve">
<style type="text/css">
	.st0{fill:#FFFFFF;}
</style>
<g>
	<path class="st0" d="M9.4,13.8c-0.1,1.2-0.5,2.3-0.9,3h7c-0.4-0.7-0.8-1.7-0.9-3C14.6,13.8,9.4,13.8,9.4,13.8z"/>
	<path class="st0" d="M13.8,11.6h-3.7c-0.5,0-1,0.3-1.3,0.8h6.3C14.9,11.9,14.4,11.6,13.8,11.6z"/>
	<path class="st0" d="M12.1,10.2c0.1-0.8,0.3-2.1,0.3-2.6c0-0.1,0-0.1-0.1-0.2S12.1,7.2,12,7.2s-0.2,0-0.3,0.1s-0.1,0.1-0.1,0.2
		c0,0.5,0.2,1.9,0.3,2.6h0.2V10.2z"/>
	<path class="st0" d="M21,0H3.1C1.4,0,0,1.4,0,3.1v17.7C0,22.6,1.4,24,3.1,24h17.8c1.7,0,3.1-1.4,3.1-3.1V3.1C24.1,1.4,22.7,0,21,0z
		 M17.4,17.8c-0.1,0.3-0.4,0.4-0.6,0.4H7.2c-0.3,0-0.5-0.2-0.6-0.4S6.5,17.3,6.7,17c0-0.1,1-1.4,1.3-3.2H7.3v-0.7
		c0-1.6,1.3-2.9,2.9-2.9h0.3c-0.1-0.8-0.2-2-0.3-2.6c0-0.5,0.1-0.9,0.5-1.3C11,6,11.5,5.8,12,5.8s1,0.2,1.3,0.5
		c0.3,0.4,0.5,0.8,0.5,1.3c0,0.6-0.2,1.8-0.3,2.6h0.3c1.6,0,2.9,1.3,2.9,2.9v0.7H16c0.2,1.9,1.2,3.2,1.3,3.2
		C17.5,17.3,17.5,17.5,17.4,17.8z"/>
</g>
</svg>
