<?xml version="1.0" encoding="utf-8"?>
<!-- Generator: Adobe Illustrator 23.1.0, SVG Export Plug-In . SVG Version: 6.00 Build 0)  -->
<svg version="1.1" id="Layer_1" xmlns="http://www.w3.org/2000/svg" xmlns:xlink="http://www.w3.org/1999/xlink" x="0px" y="0px"
	 viewBox="0 0 24 24" style="enable-background:new 0 0 24 24;" xml:space="preserve">
<style type="text/css">
	.st0{fill:#FFFFFF;}
</style>
<g>
	<path class="st0" d="M12,8.7c-1.8,0-3.3,1.5-3.3,3.3s1.5,3.3,3.3,3.3c1.8,0,3.3-1.5,3.3-3.3S13.8,8.7,12,8.7z M12,13.4
		c-0.8,0-1.4-0.6-1.4-1.4s0.6-1.4,1.4-1.4c0.8,0,1.4,0.6,1.4,1.4S12.8,13.4,12,13.4z"/>
	<path class="st0" d="M22.5,0h-21C0.7,0,0,0.7,0,1.5v21.1C0,23.3,0.7,24,1.5,24h21.1c0.8,0,1.5-0.7,1.5-1.5v-21
		C24,0.7,23.3,0,22.5,0z M20,12.9c0,0.2-0.1,0.4-0.3,0.4L17.8,14c-0.1,0.2-0.2,0.4-0.3,0.6l0.9,1.8c0.1,0.2,0.1,0.4-0.1,0.5L17,18.3
		c-0.1,0.1-0.4,0.2-0.5,0.1l-1.8-0.9c-0.2,0.1-0.4,0.2-0.6,0.3l-0.6,1.9c-0.1,0.2-0.2,0.3-0.4,0.3h-1.9c-0.2,0-0.4-0.1-0.4-0.3
		L10,17.7c-0.2-0.1-0.4-0.2-0.6-0.3l-1.8,0.9c-0.2,0.1-0.4,0.1-0.5-0.1L5.7,17c-0.1-0.1-0.2-0.4-0.1-0.5l0.9-1.8
		c-0.1-0.2-0.2-0.4-0.3-0.6l-1.9-0.6C4.1,13.3,4,13.1,4,12.9v-1.9c0-0.2,0.1-0.4,0.3-0.4L6.3,10c0.1-0.2,0.2-0.4,0.3-0.6L5.6,7.6
		C5.5,7.4,5.6,7.2,5.7,7L7,5.7c0.1-0.1,0.4-0.2,0.5-0.1l1.8,0.9C9.6,6.4,9.8,6.3,10,6.3l0.6-1.9C10.7,4.1,10.9,4,11.1,4h1.9
		c0.2,0,0.4,0.1,0.4,0.3L14,6.3c0.2,0.1,0.4,0.2,0.6,0.3l1.8-0.9c0.2-0.1,0.4-0.1,0.5,0.1L18.3,7c0.1,0.1,0.2,0.4,0.1,0.5l-0.9,1.8
		c0.1,0.2,0.2,0.4,0.3,0.6l1.9,0.6c0.2,0.1,0.3,0.2,0.3,0.4V12.9z"/>
</g>
</svg>
