<?xml version="1.0" encoding="UTF-8"?>
<svg width="24px" height="24px" enable-background="new 0 0 24 24" version="1.1" viewBox="0 0 24 24" xmlns="http://www.w3.org/2000/svg">
 <style type="text/css">.st0{fill:#FFFFFF;}</style>
 <path d="m12 0c-6.6 0-12 5.4-12 12s5.4 12 12 12 12-5.4 12-12-5.4-12-12-12zm-0.9375 4h1.875c0.20188 0 0.38171 0.129 0.44531 0.32031l0.63086 1.9297c0.21197 0.07416 0.42185 0.16047 0.62695 0.25977l1.7891-0.89453c0.18125-0.09014 0.40016-0.05492 0.54297 0.087891l1.3242 1.3242c0.1429 0.14281 0.17809 0.36067 0.087891 0.54102l-0.89453 1.791c0.09934 0.2051 0.18557 0.41501 0.25977 0.62695l1.9297 0.63086c0.19134 0.063629 0.32031 0.24344 0.32031 0.44531v1.875c0 0.20188-0.129 0.38171-0.32031 0.44531l-1.9297 0.63086c-0.07416 0.21197-0.16047 0.42185-0.25977 0.62695l0.89453 1.791c0.090141 0.18035 0.054919 0.3982-0.087891 0.54102l-1.3242 1.3242c-0.14328 0.1424-0.3611 0.17759-0.54102 0.087891l-1.791-0.89453c-0.2051 0.09934-0.41306 0.18557-0.625 0.25977l-0.63281 1.9297c-0.063659 0.19134-0.24343 0.32031-0.44531 0.32031h-1.875c-0.20187 0-0.38171-0.129-0.44531-0.32031l-0.63086-1.9297c-0.21197-0.07416-0.42185-0.16047-0.62695-0.25977l-1.7891 0.89453c-0.17944 0.090611-0.39922 0.055389-0.54297-0.087891l-1.3242-1.3242c-0.1429-0.14281-0.17809-0.36068-0.087891-0.54102l0.89453-1.791c-0.09934-0.2051-0.18557-0.41306-0.25977-0.625l-1.9297-0.63281c-0.19134-0.063628-0.32031-0.24343-0.32031-0.44531v-1.875c0-0.20187 0.129-0.38161 0.32031-0.44531l1.9297-0.63281c0.07416-0.21197 0.16047-0.4199 0.25977-0.625l-0.89453-1.791c-0.090141-0.18035-0.054919-0.39821 0.087891-0.54102l1.3242-1.3242c0.14328-0.1438 0.3602-0.17809 0.54102-0.087891l1.791 0.89453c0.2051-0.09934 0.41306-0.18557 0.625-0.25977l0.63281-1.9297c0.063628-0.19134 0.24344-0.32031 0.44531-0.32031zm0.9375 4.7188c-1.8091 0-3.2812 1.4722-3.2812 3.2812s1.4722 3.2812 3.2812 3.2812 3.2812-1.4722 3.2812-3.2812-1.4722-3.2812-3.2812-3.2812zm0 1.875c0.77544 0 1.4062 0.63081 1.4062 1.4062s-0.63081 1.4062-1.4062 1.4062-1.4062-0.63081-1.4062-1.4062 0.63081-1.4062 1.4062-1.4062z" fill="#fff"/>
</svg>
