<?xml version="1.0" encoding="utf-8"?>
<!-- Generator: Adobe Illustrator 25.0.0, SVG Export Plug-In . SVG Version: 6.00 Build 0)  -->
<svg version="1.1" id="Layer_1" xmlns="http://www.w3.org/2000/svg" xmlns:xlink="http://www.w3.org/1999/xlink" x="0px" y="0px"
	 viewBox="0 0 24 24" style="enable-background:new 0 0 24 24;" xml:space="preserve">
<style type="text/css">
	.st0{fill:#FFFFFF;}
</style>
<path class="st0" d="M22.4,0H1.5C0.7,0,0,0.7,0,1.5v21.1C0,23.3,0.7,24,1.5,24h21c0.8,0,1.5-0.7,1.5-1.5v-21C23.9,0.7,23.2,0,22.4,0
	z M17.8,16.7c0.3,0.3,0.3,0.8,0,1.1c-0.1,0.1-0.3,0.2-0.5,0.2s-0.4-0.1-0.5-0.2l-4.8-4.7l-4.7,4.7C7,17.9,6.9,18,6.8,18
	s-0.4-0.1-0.5-0.2c-0.3-0.3-0.3-0.8,0-1.1l4.7-4.7L6.1,7.3C5.8,7,5.8,6.5,6.1,6.2c0.3-0.3,0.8-0.3,1.1,0l4.7,4.7l4.7-4.7
	c0.3-0.3,0.8-0.3,1.1,0s0.3,0.8,0,1.1L13.1,12L17.8,16.7z"/>
</svg>
