<?xml version="1.0" encoding="utf-8"?>
<!-- Generator: Adobe Illustrator 23.1.0, SVG Export Plug-In . SVG Version: 6.00 Build 0)  -->
<svg version="1.1" id="Layer_1" xmlns="http://www.w3.org/2000/svg" xmlns:xlink="http://www.w3.org/1999/xlink" x="0px" y="0px"
	 viewBox="0 0 24 24" style="enable-background:new 0 0 24 24;" xml:space="preserve">
<style type="text/css">
	.st0{fill:#FFFFFF;}
</style>
<path class="st0" d="M22.4,0H1.5C0.7,0,0,0.7,0,1.5v21.1C0,23.3,0.7,24,1.5,24h21c0.8,0,1.5-0.7,1.5-1.5v-21C23.9,0.7,23.2,0,22.4,0
	z M9.4,17.9C9.4,17.9,9.4,17.9,9.4,17.9c0,0.1,0,0.1-0.1,0.2c0,0,0,0-0.1,0.1c0,0-0.1,0-0.1,0H6.4c0,0-0.1,0-0.1,0
	c0,0-0.1,0-0.1-0.1c0,0,0,0-0.1-0.1c0,0,0-0.1,0-0.1v-2.8c0,0,0-0.1,0-0.1c0,0,0-0.1,0.1-0.1s0,0,0.1-0.1c0,0,0.1,0,0.1,0h2.8
	c0,0,0.1,0,0.1,0s0.1,0,0.1,0.1c0,0,0,0,0.1,0.1c0,0,0,0.1,0,0.1V17.9z M9.4,13.4C9.4,13.4,9.4,13.5,9.4,13.4c0,0.1,0,0.1-0.1,0.2
	c0,0,0,0-0.1,0.1c0,0-0.1,0-0.1,0H6.4c0,0-0.1,0-0.1,0c0,0-0.1,0-0.1-0.1c0,0,0,0-0.1-0.1c0,0,0-0.1,0-0.1v-2.8c0,0,0-0.1,0-0.1
	c0,0,0-0.1,0.1-0.1s0,0,0.1-0.1c0,0,0.1,0,0.1,0h2.8c0,0,0.1,0,0.1,0s0.1,0,0.1,0.1c0,0,0,0,0.1,0.1c0,0,0,0.1,0,0.1V13.4z M9.4,8.9
	C9.4,8.9,9.4,9,9.4,8.9c0,0.1,0,0.1-0.1,0.2c0,0,0,0-0.1,0.1c0,0-0.1,0-0.1,0H6.4c0,0-0.1,0-0.1,0c0,0-0.1,0-0.1-0.1s0,0-0.1-0.1
	c0,0,0-0.1,0-0.1V6.1c0,0,0-0.1,0-0.1c0,0,0-0.1,0.1-0.1s0,0,0.1-0.1c0,0,0.1,0,0.1,0h2.8c0,0,0.1,0,0.1,0c0,0,0.1,0,0.1,0.1
	c0,0,0,0,0.1,0.1c0,0,0,0.1,0,0.1V8.9z M17.7,16.5C17.7,16.6,17.7,16.6,17.7,16.5c-0.1,0.1-0.1,0.1-0.1,0.1c0,0-0.1,0-0.1,0h-6.9
	c0,0-0.1,0-0.1,0c0,0-0.1,0-0.1-0.1c0,0,0,0-0.1-0.1c0,0,0-0.1,0-0.1c0,0,0-0.1,0-0.1c0,0,0-0.1,0.1-0.1c0,0,0,0,0.1-0.1
	c0,0,0.1,0,0.1,0h6.9c0,0,0.1,0,0.1,0c0,0,0.1,0,0.1,0.1c0,0,0,0,0.1,0.1C17.8,16.4,17.8,16.4,17.7,16.5
	C17.8,16.5,17.8,16.5,17.7,16.5z M17.7,12.1C17.7,12.1,17.7,12.1,17.7,12.1c-0.1,0.1-0.1,0.1-0.1,0.1c0,0-0.1,0-0.1,0h-6.9
	c0,0-0.1,0-0.1,0c0,0-0.1,0-0.1-0.1c0,0,0,0-0.1-0.1c0,0,0-0.1,0-0.1c0,0,0-0.1,0-0.1c0,0,0-0.1,0.1-0.1c0,0,0,0,0.1-0.1
	c0,0,0.1,0,0.1,0h6.9c0,0,0.1,0,0.1,0c0,0,0.1,0,0.1,0.1c0,0,0,0,0.1,0.1C17.8,11.9,17.8,12,17.7,12.1C17.8,12,17.8,12,17.7,12.1z
	 M17.8,7.6C17.8,7.6,17.8,7.7,17.8,7.6c-0.1,0.1-0.1,0.1-0.1,0.1c0,0-0.1,0-0.1,0h-6.9c0,0-0.1,0-0.1,0c0,0-0.1,0-0.1-0.1
	c0,0,0,0-0.1-0.1c0,0,0-0.1,0-0.1c0,0,0-0.1,0-0.1c0,0,0-0.1,0.1-0.1c0,0,0,0,0.1-0.1c0,0,0.1,0,0.1,0h6.9c0,0,0.1,0,0.1,0
	c0,0,0.1,0,0.1,0.1c0,0,0,0,0.1,0.1C17.8,7.4,17.8,7.5,17.8,7.6C17.8,7.5,17.8,7.6,17.8,7.6z"/>
</svg>
