<?xml version="1.0" encoding="UTF-8"?>
<svg enable-background="new 0 0 24 24" version="1.1" viewBox="0 0 24 24" xmlns="http://www.w3.org/2000/svg">
 <style type="text/css">.st0{fill:#545454;}</style>
 <path class="st0" d="m12 0c-6.6 0-12 5.4-12 12s5.4 12 12 12 12-5.4 12-12-5.4-12-12-12zm5.8 16.2c0 1.1-0.9 1.9-1.9 1.9h-8.4c-1.1 0-1.9-0.9-1.9-1.9v-7.8c0-1.1 0.9-1.9 1.9-1.9h2.7c0.4 0 0.7 0.3 0.7 0.7s-0.3 0.7-0.7 0.7h-2.7c-0.3 0-0.5 0.2-0.5 0.5v7.8c0 0.3 0.2 0.5 0.5 0.5h8.4c0.3 0 0.5-0.2 0.5-0.5v-2.7c0-0.4 0.3-0.7 0.7-0.7s0.7 0.3 0.7 0.7v2.7zm0.1-7.5-5.4 5.4c-0.1 0.1-0.2 0.2-0.3 0.2l-2.5 0.7h-0.2c-0.2 0-0.4-0.1-0.5-0.2-0.2-0.2-0.3-0.5-0.2-0.7l0.7-2.5c0-0.1 0.1-0.2 0.2-0.3l5.4-5.4c0.7-0.7 1.9-0.7 2.5 0l0.4 0.4c0.6 0.6 0.6 1.7-0.1 2.4z"/>
</svg>
