<?xml version="1.0" encoding="utf-8"?>
<!-- Generator: Adobe Illustrator 23.1.0, SVG Export Plug-In . SVG Version: 6.00 Build 0)  -->
<svg version="1.1" id="Layer_1" xmlns="http://www.w3.org/2000/svg" xmlns:xlink="http://www.w3.org/1999/xlink" x="0px" y="0px"
	 viewBox="0 0 24 24" style="enable-background:new 0 0 24 24;" xml:space="preserve">
<style type="text/css">
	.st0{fill:#545454;}
</style>
<path class="st0" d="M21,0H3.1C1.4,0,0,1.4,0,3.1v17.7C0,22.6,1.4,24,3.1,24h17.8c1.7,0,3.1-1.4,3.1-3.1V3.1C24.1,1.4,22.7,0,21,0z
	 M17.8,16.2c0,1.1-0.9,1.9-1.9,1.9H7.5c-1.1,0-1.9-0.9-1.9-1.9V8.4c0-1.1,0.9-1.9,1.9-1.9h2.7c0.4,0,0.7,0.3,0.7,0.7
	c0,0.4-0.3,0.7-0.7,0.7H7.5C7.2,7.9,7,8.1,7,8.4v7.8c0,0.3,0.2,0.5,0.5,0.5h8.4c0.3,0,0.5-0.2,0.5-0.5v-2.7c0-0.4,0.3-0.7,0.7-0.7
	c0.4,0,0.7,0.3,0.7,0.7V16.2z M17.9,8.7l-5.4,5.4c-0.1,0.1-0.2,0.2-0.3,0.2L9.7,15H9.5c-0.2,0-0.4-0.1-0.5-0.2
	c-0.2-0.2-0.3-0.5-0.2-0.7l0.7-2.5c0-0.1,0.1-0.2,0.2-0.3l5.4-5.4c0.7-0.7,1.9-0.7,2.5,0L18,6.3C18.6,6.9,18.6,8,17.9,8.7z"/>
</svg>
