<?xml version="1.0" encoding="UTF-8"?>
<svg width="24" height="24" version="1.1" viewBox="0 0 24 24" xmlns="http://www.w3.org/2000/svg">
 <style type="text/css">.st0{fill:#FFFFFF;}</style>
 <g transform="matrix(.053691 0 0 .053691 -1.08e-6 -.0080548)">
  <path class="st0" d="m231.5 446.7c34.2-4.9 64.1-40.5 83-93.2-27.3-6.1-55.1-9.4-83-9.8z"/>
  <path class="st0" d="m286.1 438.4 6-1.8c1.7-0.5 3.3-1.1 5-1.7 2-0.7 3.9-1.4 5.9-2.1 1.7-0.6 3.3-1.3 5-2l5.7-2.4c1.6-0.7 3.3-1.5 4.9-2.2 1.8-0.9 3.7-1.8 5.5-2.7 1.6-0.8 3.2-1.6 4.8-2.5 1.8-1 3.6-1.9 5.3-2.9 1.6-0.9 3.1-1.8 4.7-2.8 1.7-1.1 3.5-2.1 5.2-3.2 1.5-1 3.1-2 4.6-3 1.7-1.1 3.3-2.3 5-3.5 1.5-1.1 3-2.1 4.4-3.2 1.6-1.2 3.2-2.5 4.8-3.8 1.4-1.1 2.8-2.3 4.2-3.4 1.6-1.3 3.1-2.7 4.7-4.1 1.4-1.2 2.7-2.4 4-3.6 1.5-1.4 3-2.9 4.5-4.4 1.3-1.3 2.6-2.5 3.9-3.8 0.2-0.2 0.5-0.5 0.7-0.8-17.4-9-35.8-16.1-54.7-21.1-9.9 31.4-27.4 59.9-51.1 82.9 0.6-0.2 1.3-0.3 1.9-0.5 1.8-0.4 3.4-0.9 5.1-1.4z"/>
  <path class="st0" d="m447 231.7h-95.8c-0.4 37.4-5.8 74.6-16.1 110.5 21.1 5.6 41.4 13.7 60.6 24.1 31.5-38 49.6-85.3 51.3-134.6z"/>
  <path class="st0" d="m231.5 215.7h103.7c-0.4-36.1-5.7-71.9-15.7-106.6-28.9 6.6-58.4 10.1-88 10.5z"/>
  <path class="st0" d="m231.5 0.6v103c27.9-0.4 55.7-3.7 83-9.8-18.9-52.6-48.8-88.3-83-93.2z"/>
  <path class="st0" d="m231.5 327.8c29.6 0.4 59.1 3.9 88 10.5 10-34.7 15.3-70.5 15.7-106.6h-103.7z"/>
  <path class="st0" d="m395.7 81c-19.2 10.4-39.5 18.5-60.6 24.1 10.3 35.9 15.8 73.1 16.1 110.5h95.8c-1.7-49.2-19.8-96.6-51.3-134.6z"/>
  <path class="st0" d="m384.9 68.9-0.7-0.7c-1.3-1.3-2.6-2.6-3.9-3.8-1.5-1.5-3-2.9-4.5-4.4-1.3-1.2-2.7-2.4-4-3.6-1.5-1.4-3.1-2.8-4.7-4.1-1.4-1.2-2.8-2.3-4.2-3.4-1.6-1.3-3.2-2.6-4.9-3.8-1.4-1.1-2.9-2.1-4.4-3.2-1.7-1.2-3.3-2.4-5-3.5l-4.5-3c-1.7-1.1-3.5-2.2-5.2-3.3-1.5-0.9-3.1-1.8-4.7-2.7l-5.4-3c-1.6-0.8-3.2-1.7-4.8-2.5-1.8-0.9-3.7-1.8-5.6-2.7-1.6-0.8-3.2-1.5-4.9-2.2l-5.7-2.4c-1.6-0.7-3.3-1.3-4.9-2-1.9-0.7-3.9-1.4-5.9-2.1-1.7-0.6-3.3-1.2-5-1.7l-6-1.8c-1.7-0.5-3.3-1-5-1.4-0.6-0.2-1.3-0.3-1.9-0.5 23.6 23 41.2 51.5 51.1 82.9 18.9-5 37.3-12.1 54.7-21.1z"/>
  <path class="st0" d="m0 215.7h95.8c0.4-37.4 5.8-74.6 16.1-110.5-21.1-5.7-41.4-13.8-60.6-24.2-31.5 38-49.6 85.4-51.3 134.7z"/>
  <path class="st0" d="m215.5 446.7v-103c-27.9 0.4-55.7 3.7-83 9.8 18.9 52.7 48.8 88.4 83 93.2z"/>
  <path class="st0" d="m215.5 231.7h-103.7c0.4 36.1 5.7 71.9 15.7 106.6 28.9-6.6 58.4-10.1 88-10.5z"/>
  <path class="st0" d="m215.5 0.6c-34.2 4.9-64.2 40.5-83 93.2 27.3 6.1 55.1 9.4 83 9.8z"/>
  <path class="st0" d="m215.5 119.6c-29.6-0.4-59.1-3.9-88-10.5-10 34.7-15.3 70.5-15.7 106.6h103.7z"/>
  <path class="st0" d="m167.9 7.1c-0.6 0.2-1.3 0.3-1.9 0.5-1.7 0.5-3.4 1-5 1.4l-6 1.8c-1.7 0.6-3.4 1.1-5 1.7-2 0.7-3.9 1.4-5.8 2.1-1.7 0.6-3.3 1.3-5 2l-5.7 2.4c-1.6 0.7-3.3 1.5-4.9 2.2-1.8 0.9-3.7 1.8-5.5 2.7-1.6 0.8-3.2 1.7-4.8 2.5-1.8 1-3.6 1.9-5.3 2.9-1.6 0.9-3.2 1.8-4.7 2.7-1.7 1-3.5 2.1-5.2 3.2-1.5 1-3.1 2-4.6 3-1.7 1.1-3.3 2.3-5 3.5-1.5 1.1-3 2.1-4.4 3.2-1.6 1.2-3.2 2.5-4.8 3.8-1.4 1.1-2.9 2.3-4.2 3.4-1.6 1.3-3.1 2.7-4.7 4-1.4 1.2-2.7 2.4-4.1 3.7-1.5 1.4-3 2.9-4.5 4.3-1.3 1.3-2.6 2.5-3.9 3.8-0.2 0.2-0.5 0.5-0.7 0.8 17.4 9 35.8 16.1 54.7 21.1 9.8-31.3 27.3-59.8 51-82.7z"/>
  <path class="st0" d="m66.6 383c1.5 1.5 3 2.9 4.5 4.4 1.3 1.2 2.7 2.4 4.1 3.6 1.5 1.4 3.1 2.8 4.7 4.1 1.4 1.2 2.8 2.3 4.2 3.4 1.6 1.3 3.2 2.6 4.9 3.8 1.4 1.1 2.9 2.1 4.4 3.2 1.7 1.2 3.4 2.4 5.1 3.5l4.5 3c1.7 1.1 3.5 2.2 5.2 3.2 1.5 0.9 3.1 1.8 4.7 2.7l5.4 3c1.6 0.8 3.2 1.7 4.8 2.5 1.8 0.9 3.7 1.8 5.6 2.7 1.6 0.8 3.2 1.5 4.9 2.2l5.7 2.4c1.6 0.7 3.3 1.3 4.9 2 1.9 0.7 3.9 1.4 5.9 2.1 1.7 0.6 3.3 1.2 5 1.7l6 1.8c1.7 0.5 3.3 1 5 1.4 0.6 0.2 1.3 0.3 2 0.5-23.6-23-41.2-51.5-51.1-82.9-19 5-37.3 12.1-54.7 21.1l0.7 0.7c1 1.4 2.3 2.6 3.6 3.9z"/>
  <path class="st0" d="m51.3 366.3c19.2-10.4 39.5-18.5 60.6-24.1-10.3-35.9-15.8-73.1-16.1-110.5h-95.8c1.7 49.3 19.8 96.6 51.3 134.6z"/>
 </g>
</svg>
