<?xml version="1.0" encoding="utf-8"?>
<!-- Generator: Adobe Illustrator 23.1.0, SVG Export Plug-In . SVG Version: 6.00 Build 0)  -->
<svg version="1.1" id="Layer_1" xmlns="http://www.w3.org/2000/svg" xmlns:xlink="http://www.w3.org/1999/xlink" x="0px" y="0px"
	 viewBox="0 0 7 20" style="enable-background:new 0 0 7 20;" xml:space="preserve">
<style type="text/css">
	.st0{fill:#FFFFFF;}
</style>
<g>
	<path class="st0" d="M4.8,1H2.2C2.1,1,2,1.1,2,1.2v2.6C2,3.9,2.1,4,2.2,4h2.6C4.9,4,5,3.9,5,3.8V1.2C5,1.1,4.9,1,4.8,1z"/>
	<path class="st0" d="M4.8,6H2.2C2.1,6,2,6.1,2,6.2v2.6C2,8.9,2.1,9,2.2,9h2.6C4.9,9,5,8.9,5,8.8V6.2C5,6.1,4.9,6,4.8,6z"/>
	<path class="st0" d="M4.8,11H2.2C2.1,11,2,11.1,2,11.2v2.6C2,13.9,2.1,14,2.2,14h2.6C4.9,14,5,13.9,5,13.8v-2.6
		C5,11.1,4.9,11,4.8,11z"/>
	<path class="st0" d="M4.8,16H2.2C2.1,16,2,16.1,2,16.2v2.6C2,18.9,2.1,19,2.2,19h2.6C4.9,19,5,18.9,5,18.8v-2.6
		C5,16.1,4.9,16,4.8,16z"/>
</g>
</svg>
