<?xml version="1.0" encoding="utf-8"?>
<!-- Generator: Adobe Illustrator 25.0.0, SVG Export Plug-In . SVG Version: 6.00 Build 0)  -->
<svg version="1.1" id="Layer_1" xmlns="http://www.w3.org/2000/svg" xmlns:xlink="http://www.w3.org/1999/xlink" x="0px" y="0px"
	 viewBox="0 0 24 24" style="enable-background:new 0 0 24 24;" xml:space="preserve">
<style type="text/css">
	.st0{fill:#FFFFFF;}
</style>
<g>
	<path class="st0" d="M10.9,7.5C9,7.5,7.5,9,7.5,10.9s1.5,3.4,3.4,3.4s3.4-1.5,3.4-3.4S12.7,7.5,10.9,7.5z M12.8,11.6H9v-1.5h3.8
		V11.6z"/>
	<path class="st0" d="M21,0H3.1C1.4,0,0,1.4,0,3.1v17.7C0,22.6,1.4,24,3.1,24h17.8c1.7,0,3.1-1.4,3.1-3.1V3.1C24.1,1.4,22.7,0,21,0z
		 M16.9,18l-3.2-3.2c-0.8,0.6-1.8,0.9-2.9,0.9c-2.7,0-4.9-2.2-4.9-4.9S8.2,6,10.9,6s4.9,2.2,4.9,4.9c0,1.1-0.4,2.1-0.9,2.9l3.2,3.2
		L16.9,18z"/>
</g>
</svg>
