<?xml version="1.0" encoding="utf-8"?>
<!-- Generator: Adobe Illustrator 25.0.0, SVG Export Plug-In . SVG Version: 6.00 Build 0)  -->
<svg version="1.1" id="Layer_1" xmlns="http://www.w3.org/2000/svg" xmlns:xlink="http://www.w3.org/1999/xlink" x="0px" y="0px"
	 viewBox="0 0 24 24" style="enable-background:new 0 0 24 24;" xml:space="preserve">
<style type="text/css">
	.st0{fill:#FFFFFF;}
</style>
<path class="st0" d="M21,0H3.1C1.4,0,0,1.4,0,3.1v17.7C0,22.6,1.4,24,3.1,24h17.8c1.7,0,3.1-1.4,3.1-3.1V3.1C24.1,1.4,22.7,0,21,0z
	 M10.3,12.5L8.8,14c-0.1,0.1-0.3,0.2-0.5,0.2S8,14.1,7.8,14c-0.3-0.3-0.3-0.7,0-1l0.4-0.4H6.5C6.3,12.6,6,12.3,6,12
	c0-0.4,0.3-0.7,0.7-0.7h1.6l-0.4-0.4c-0.3-0.3-0.3-0.7,0-1c0.3-0.3,0.7-0.3,1,0l1.5,1.5C10.5,11.8,10.5,12.1,10.3,12.5z M12.7,17.3
	c0,0.4-0.3,0.7-0.7,0.7s-0.7-0.3-0.7-0.7V6.5C11.3,6.3,11.6,6,12,6s0.7,0.3,0.7,0.7V17.3z M17.3,12.6h-1.6l0.4,0.4
	c0.3,0.3,0.3,0.7,0,1c-0.1,0.1-0.3,0.2-0.5,0.2s-0.4-0.1-0.5-0.2l-1.5-1.5c-0.1-0.1-0.2-0.3-0.2-0.5s0.1-0.4,0.2-0.5l1.5-1.5
	c0.3-0.3,0.7-0.3,1,0s0.3,0.7,0,1l-0.4,0.4h1.6c0.4,0,0.7,0.3,0.7,0.7C18,12.3,17.7,12.6,17.3,12.6z"/>
</svg>
