<?xml version="1.0" encoding="UTF-8"?>
<svg enable-background="new 0 0 24 24" version="1.1" viewBox="0 0 24 24" xmlns="http://www.w3.org/2000/svg">
 <style type="text/css">.st0{fill:#FFFFFF;}</style>
 <path d="m21.562 0c1.3506 0 2.4375 1.0869 2.4375 2.4375v19.125c0 1.3506-1.0869 2.4375-2.4375 2.4375h-19.125c-1.3506 0-2.4375-1.0869-2.4375-2.4375v-19.125c0-1.3506 1.0869-2.4375 2.4375-2.4375zm-11.377 4.5508c-0.40004 0-0.80156 0.098438-1.1016 0.39844-0.2 0.30004-0.39844 0.70156-0.39844 1.1016 0 0.39999 0.2 0.79961 0.5 1.0996l4.8984 4.9004-5 4.8984c-0.6 0.6-0.6 1.5016 0 2.1016 0.30004 0.2 0.70156 0.39844 1.1016 0.39844 0.39999 0 0.79961-0.09844 1.0996-0.39844l5.6992-5.7012c0.8-0.7 0.8-1.8992 0-2.6992l-5.6992-5.7012c-0.29999-0.2-0.69961-0.39844-1.0996-0.39844z" fill="#fff" stroke-width=".993"/>
</svg>
