<?xml version="1.0" encoding="utf-8"?>
<!-- Generator: Adobe Illustrator 25.0.0, SVG Export Plug-In . SVG Version: 6.00 Build 0) , CssUnknownProperty, HtmlDeprecatedAttribute -->
<!--suppress ALL -->
<svg version="1.1" id="Capa_1" xmlns="http://www.w3.org/2000/svg" xmlns:xlink="http://www.w3.org/1999/xlink" x="0px" y="0px"
	 viewBox="0 0 24 24" style="enable-background:new 0 0 24 24;" xml:space="preserve">
<style type="text/css">
	.st0{fill:#FFFFFF;}
</style>
<g id="_x30_5-Proffessional_video_camera">
	<path class="st0" d="M23,8.4c0.6-0.7,1-1.6,1-2.6c0-2.3-1.8-4.1-4.1-4.1c-1.9,0-3.6,1.3-4,3.1h-2.3c-0.4-1.8-2.1-3.1-4-3.1
		c-2.3,0-4.1,1.8-4.1,4.1c0,1,0.4,1.9,1,2.6C6.4,8.4,23,8.4,23,8.4z"/>
	<path class="st0" d="M23.1,9.8H6.3C6.2,9.8,6,9.9,6,10.1v7.3c0,0.2,0.1,0.3,0.3,0.3h5.1l2.5,2.1h1.6v2.6h4.3v-2.6h1.6l1.7-2.1
		c0.2,0,0.3-0.1,0.3-0.3v-7.3C23.4,9.9,23.3,9.8,23.1,9.8z"/>
	<path class="st0" d="M0.7,9.2c-0.1-0.1-0.3-0.1-0.4,0C0.1,9.3,0,9.4,0,9.6v8.3c0,0.2,0.1,0.3,0.2,0.4c0.1,0,0.1,0,0.2,0
		c0.1,0,0.2,0,0.2-0.1l3.5-2.6h1v-3.7h-1L0.7,9.2z"/>
</g>
</svg>
