<?xml version="1.0" encoding="UTF-8"?>
<svg enable-background="new 0 0 24 24" version="1.1" viewBox="0 0 24 24" xmlns="http://www.w3.org/2000/svg">
 <style type="text/css">.st0{fill:#FFFFFF;}</style>
 <path class="st0" d="m11.5 15.1c-0.2 0.3-0.7 0.3-0.9 0l-1.7-1.7-1.9 1.9v1.4c0 0.2 0.1 0.3 0.3 0.3h9.5c0.2 0 0.3-0.1 0.3-0.3v-2.6l-2.3-2.3-3.3 3.3z"/>
 <path class="st0" d="m9.7 8c-0.7 0-1.2 0.6-1.2 1.3s0.6 1.3 1.3 1.3 1.2-0.6 1.2-1.3-0.6-1.3-1.3-1.3z"/>
 <path class="st0" d="m16.7 7h-9.4c-0.2 0-0.3 0.1-0.3 0.3v6.2l1.4-1.5c0.1-0.1 0.3-0.2 0.5-0.2s0.3 0.1 0.5 0.2l1.7 1.7 3.3-3.3c0.1-0.1 0.3-0.2 0.5-0.2s0.3 0.1 0.5 0.2l1.8 1.8v-5c-0.2-0.1-0.3-0.2-0.5-0.2zm-7 4.2c-1 0-1.9-0.8-1.9-1.9 0-1 0.8-1.9 1.9-1.9 1 0 1.9 0.8 1.9 1.9 0 1-0.8 1.9-1.9 1.9z"/>
 <path class="st0" d="m12 0c-6.6 0-12 5.4-12 12s5.4 12 12 12 12-5.4 12-12-5.4-12-12-12zm6.3 16.7c0 0.9-0.7 1.6-1.6 1.6h-9.4c-0.9 0-1.6-0.7-1.6-1.6v-9.4c0-0.9 0.7-1.6 1.6-1.6h9.4c0.9 0 1.6 0.7 1.6 1.6v9.4z"/>
</svg>
