<?xml version="1.0" encoding="utf-8"?>
<!-- Generator: Adobe Illustrator 25.0.0, SVG Export Plug-In . SVG Version: 6.00 Build 0)  -->
<svg version="1.1" id="Layer_1" xmlns="http://www.w3.org/2000/svg" xmlns:xlink="http://www.w3.org/1999/xlink" x="0px" y="0px"
	 viewBox="0 0 24 24" style="enable-background:new 0 0 24 24;" xml:space="preserve">
<style type="text/css">
	.st0{fill:#FFFFFF;}
</style>
<g>
	<path class="st0" d="M9.7,8C9,8,8.5,8.6,8.5,9.3s0.6,1.3,1.3,1.3S11,10,11,9.3S10.4,8,9.7,8z"/>
	<path class="st0" d="M21,0H3.1C1.4,0,0,1.4,0,3.1v17.7C0,22.6,1.4,24,3.1,24h17.8c1.7,0,3.1-1.4,3.1-3.1V3.1C24.1,1.4,22.7,0,21,0z
		 M18.3,16.7c0,0.9-0.7,1.6-1.6,1.6H7.3c-0.9,0-1.6-0.7-1.6-1.6V7.3c0-0.9,0.7-1.6,1.6-1.6h9.4c0.9,0,1.6,0.7,1.6,1.6
		C18.3,7.3,18.3,16.7,18.3,16.7z"/>
	<path class="st0" d="M7.3,7C7.1,7,7,7.1,7,7.3v6.2L8.4,12c0.1-0.1,0.3-0.2,0.5-0.2s0.3,0.1,0.5,0.2l1.7,1.7l3.3-3.3
		c0.1-0.1,0.3-0.2,0.5-0.2s0.3,0.1,0.5,0.2l1.8,1.8v-5C17,7.1,16.9,7,16.7,7H7.3z M9.7,11.2c-1,0-1.9-0.8-1.9-1.9
		c0-1,0.8-1.9,1.9-1.9c1,0,1.9,0.8,1.9,1.9C11.6,10.3,10.8,11.2,9.7,11.2z"/>
	<path class="st0" d="M11.5,15.1c-0.2,0.3-0.7,0.3-0.9,0l-1.7-1.7L7,15.3v1.4C7,16.9,7.1,17,7.3,17h9.5c0.2,0,0.3-0.1,0.3-0.3v-2.6
		l-2.3-2.3L11.5,15.1z"/>
</g>
</svg>
