<?xml version="1.0" encoding="UTF-8"?>
<svg enable-background="new 0 0 24 24" version="1.1" viewBox="0 0 24 24" xmlns="http://www.w3.org/2000/svg">
 <style type="text/css">.st0{fill:#FFFFFF;}</style>
 <path class="st0" d="m13.83 11.62h-3.66c-0.54 0-1.04 0.31-1.3 0.77h6.26c-0.26-0.47-0.76-0.77-1.3-0.77z"/>
 <path class="st0" d="m12.1 10.19c0.1-0.83 0.26-2.11 0.29-2.64 0-0.08-0.03-0.15-0.09-0.22s-0.18-0.11-0.3-0.11-0.23 0.04-0.3 0.11c-0.06 0.06-0.09 0.14-0.09 0.22 0.03 0.55 0.2 1.92 0.29 2.64h0.2z"/>
 <path class="st0" d="M9.38,13.81c-0.12,1.23-0.5,2.25-0.86,2.96h6.97c-0.36-0.72-0.75-1.74-0.86-2.96H9.38z"/>
 <path class="st0" d="m12 0c-6.63 0-12 5.37-12 12s5.37 12 12 12 12-5.37 12-12-5.37-12-12-12zm5.4 17.8c-0.12 0.25-0.37 0.4-0.64 0.4h-9.52c-0.27 0-0.52-0.16-0.64-0.4s-0.09-0.54 0.08-0.75c0.04-0.06 1.03-1.39 1.25-3.23h-0.67v-0.72c0-1.6 1.3-2.91 2.91-2.91h0.29c-0.1-0.8-0.24-2.01-0.27-2.56-0.03-0.47 0.14-0.93 0.47-1.28 0.34-0.35 0.82-0.55 1.34-0.55s1 0.2 1.34 0.55c0.33 0.35 0.5 0.8 0.47 1.28-0.03 0.57-0.18 1.85-0.27 2.56h0.29c1.6 0 2.91 1.3 2.91 2.91v0.71h-0.68c0.22 1.88 1.22 3.2 1.25 3.23 0.17 0.21 0.21 0.51 0.09 0.76z"/>
</svg>
