<?xml version="1.0" encoding="utf-8"?>
<!-- Generator: Adobe Illustrator 25.0.0, SVG Export Plug-In . SVG Version: 6.00 Build 0)  -->
<svg version="1.1" id="Layer_1" xmlns="http://www.w3.org/2000/svg" xmlns:xlink="http://www.w3.org/1999/xlink" x="0px" y="0px"
	 viewBox="0 0 24 24" style="enable-background:new 0 0 24 24;" xml:space="preserve">
<style type="text/css">
	.st0{fill:#FFFFFF;}
</style>
<g>
	<rect x="6.5" y="16.5" class="st0" width="9.1" height="0.7"/>
	<rect x="9.9" y="10.7" class="st0" width="0.7" height="0.7"/>
	<rect x="6.5" y="10.7" class="st0" width="0.7" height="0.7"/>
	<rect x="7.6" y="10.7" class="st0" width="0.7" height="0.7"/>
	<rect x="8.8" y="10.7" class="st0" width="0.7" height="0.7"/>
	<rect x="6.5" y="15" class="st0" width="0.7" height="0.7"/>
	<rect x="8.8" y="15" class="st0" width="0.7" height="0.7"/>
	<rect x="7.6" y="15" class="st0" width="0.7" height="0.7"/>
	<rect x="6.5" y="12.2" class="st0" width="9.1" height="0.7"/>
	<rect x="9.9" y="15" class="st0" width="0.7" height="0.7"/>
	<rect x="6.5" y="6.4" class="st0" width="0.7" height="0.7"/>
	<rect x="6.5" y="7.9" class="st0" width="9.1" height="0.7"/>
	<path class="st0" d="M22.4,0H1.5C0.7,0,0,0.7,0,1.5v21.1C0,23.3,0.7,24,1.5,24h21c0.8,0,1.5-0.7,1.5-1.5v-21
		C23.9,0.7,23.2,0,22.4,0z M18,17.5c0,0.3-0.2,0.5-0.5,0.5h-11c-0.3,0-0.5-0.2-0.5-0.5v-2.4c0-0.3,0.2-0.5,0.5-0.5h11
		c0.3,0,0.5,0.2,0.5,0.5V17.5z M18,13.2c0,0.3-0.2,0.5-0.5,0.5h-11c-0.3,0-0.5-0.2-0.5-0.5v-2.4c0-0.3,0.2-0.5,0.5-0.5h11
		c0.3,0,0.5,0.2,0.5,0.5V13.2z M18,8.9c0,0.3-0.2,0.5-0.5,0.5h-11c-0.3,0-0.5-0.2-0.5-0.5V6.5C5.9,6.2,6.1,6,6.4,6h11
		C17.8,6,18,6.2,18,6.5V8.9z"/>
	<rect x="7.6" y="6.4" class="st0" width="0.7" height="0.7"/>
	<rect x="8.8" y="6.4" class="st0" width="0.7" height="0.7"/>
	<rect x="9.9" y="6.4" class="st0" width="0.7" height="0.7"/>
</g>
</svg>
