<?xml version="1.0" encoding="utf-8"?>
<!-- Generator: Adobe Illustrator 23.1.0, SVG Export Plug-In . SVG Version: 6.00 Build 0)  -->
<svg version="1.1" id="Layer_1" xmlns="http://www.w3.org/2000/svg" xmlns:xlink="http://www.w3.org/1999/xlink" x="0px" y="0px"
	 viewBox="0 0 24 24" style="enable-background:new 0 0 24 24;" xml:space="preserve">
<style type="text/css">
	.st0{fill:#FFFFFF;}
</style>
<path class="st0" d="M22.5,0H1.5C0.7,0,0,0.7,0,1.5v21.1C0,23.3,0.7,24,1.5,24h21.1c0.8,0,1.5-0.7,1.5-1.5V1.5C24,0.7,23.3,0,22.5,0
	z M17.8,16.5c0,1.1-0.9,1.9-1.9,1.9H7.5c-1.1,0-1.9-0.9-1.9-1.9V8.7c0-1.1,0.9-1.9,1.9-1.9h2.7c0.4,0,0.7,0.3,0.7,0.7
	c0,0.4-0.3,0.7-0.7,0.7H7.5C7.2,8.2,7,8.4,7,8.7v7.8C7,16.8,7.2,17,7.5,17h8.4c0.3,0,0.5-0.2,0.5-0.5v-2.7c0-0.4,0.3-0.7,0.7-0.7
	c0.4,0,0.7,0.3,0.7,0.7V16.5z M17.9,9l-5.4,5.4c-0.1,0.1-0.2,0.2-0.3,0.2l-2.5,0.7c-0.1,0-0.1,0-0.2,0c-0.2,0-0.4-0.1-0.5-0.2
	c-0.2-0.2-0.3-0.5-0.2-0.7l0.7-2.5c0-0.1,0.1-0.2,0.2-0.3l5.4-5.4c0.7-0.7,1.9-0.7,2.5,0L18,6.6C18.6,7.2,18.6,8.3,17.9,9z"/>
<g>
</g>
<g>
</g>
<g>
</g>
<g>
</g>
<g>
</g>
<g>
</g>
</svg>
