<?xml version="1.0" encoding="utf-8"?>
<!-- Generator: Adobe Illustrator 25.0.0, SVG Export Plug-In . SVG Version: 6.00 Build 0)  -->
<svg version="1.1" id="Layer_1" xmlns="http://www.w3.org/2000/svg" xmlns:xlink="http://www.w3.org/1999/xlink" x="0px" y="0px"
	 viewBox="0 0 24 24" style="enable-background:new 0 0 24 24;" xml:space="preserve">
<style type="text/css">
	.st0{fill:#FFFFFF;}
</style>
<path class="st0" d="M22.4,0H1.5C0.7,0,0,0.7,0,1.5v21.1C0,23.3,0.7,24,1.5,24h21c0.8,0,1.5-0.7,1.5-1.5v-21C23.9,0.7,23.2,0,22.4,0
	z M5.9,6.4C5.9,6.2,6.1,6,6.3,6h3.3C9.8,6,10,6.1,10,6.3c0,0.1,0,0.2-0.1,0.3C9.6,6.9,9.3,7,8.9,7H7v1.8c0,0.4-0.1,0.7-0.4,1
	C6.5,9.9,6.4,9.9,6.3,9.9s-0.1,0-0.2-0.1C6,10,5.9,9.8,5.9,9.7V6.4z M15.6,7.8c0.3,0,0.5,0.2,0.5,0.5v7.3c0,0.3-0.2,0.5-0.5,0.5H8.3
	c-0.3,0-0.5-0.2-0.5-0.5V8.3C7.8,8,8,7.8,8.3,7.8H15.6z M9.9,17.8C9.8,17.9,9.8,18,9.6,18H6.3c-0.2,0-0.4-0.2-0.4-0.4v-3.3
	c0-0.2,0.1-0.3,0.3-0.4c0.1,0,0.3,0,0.4,0.1c0.3,0.3,0.4,0.6,0.4,1v1.8h1.8c0.4,0,0.7,0.1,1,0.4C10.1,17.5,10.1,17.6,9.9,17.8z
	 M17.5,18h-3.3c-0.2,0-0.3-0.1-0.4-0.3c0-0.1,0-0.3,0.1-0.4c0.3-0.3,0.6-0.4,1-0.4h1.8v-1.8c0-0.4,0.1-0.7,0.4-1
	c0.1-0.1,0.3-0.2,0.5,0c0.1,0.1,0.2,0.2,0.2,0.3v3.2H18C18,17.8,17.8,18,17.5,18z M18,9.7c0,0.1,0,0.3-0.2,0.3
	c-0.1,0-0.1,0.1-0.2,0.1c-0.1,0-0.2,0-0.3-0.1c-0.3-0.3-0.4-0.6-0.4-1V7.1H15c-0.4,0-0.7-0.1-1-0.4c-0.1-0.1-0.2-0.3-0.1-0.5
	C14.1,6.1,14.1,6,14.3,6h3.3C17.8,6,18,6.2,18,6.4V9.7z"/>
</svg>
