<?xml version="1.0" encoding="utf-8"?>
<!-- Generator: Adobe Illustrator 23.1.0, SVG Export Plug-In . SVG Version: 6.00 Build 0)  -->
<svg version="1.1" id="Layer_1" xmlns="http://www.w3.org/2000/svg" xmlns:xlink="http://www.w3.org/1999/xlink" x="0px" y="0px"
	 viewBox="0 0 24 24" style="enable-background:new 0 0 24 24;" xml:space="preserve">
<style type="text/css">
	.st0{fill:#FFFFFF;}
</style>
<path class="st0" d="M22.5,0h-21C0.7,0,0,0.7,0,1.5v21.1C0,23.3,0.7,24,1.5,24h21.1c0.8,0,1.5-0.7,1.5-1.5v-21C24,0.7,23.3,0,22.5,0
	z M17.5,16.5h-1.3c-0.2,0.7-0.9,1.3-1.7,1.3s-1.5-0.5-1.7-1.3H6.5C6.2,16.5,6,16.3,6,16s0.2-0.5,0.5-0.5h6.3
	c0.2-0.7,0.9-1.3,1.7-1.3s1.5,0.5,1.7,1.3h1.3c0.3,0,0.5,0.2,0.5,0.5S17.8,16.5,17.5,16.5z M17.5,12.5h-6.3
	c-0.2,0.7-0.9,1.3-1.7,1.3S8,13.2,7.8,12.5H6.5C6.2,12.5,6,12.3,6,12s0.2-0.5,0.5-0.5h1.3c0.2-0.7,0.9-1.3,1.7-1.3s1.5,0.5,1.7,1.3
	h6.3c0.3,0,0.5,0.2,0.5,0.5S17.8,12.5,17.5,12.5z M17.5,8.5h-1.3c-0.2,0.7-0.9,1.3-1.7,1.3S13,9.3,12.8,8.5H6.5C6.2,8.5,6,8.3,6,8
	s0.2-0.5,0.5-0.5h6.3c0.2-0.7,0.9-1.3,1.7-1.3s1.5,0.5,1.7,1.3h1.3C17.8,7.5,18,7.7,18,8S17.8,8.5,17.5,8.5z"/>
</svg>
