<?xml version="1.0" encoding="utf-8"?>
<!-- Generator: Adobe Illustrator 25.0.0, SVG Export Plug-In . SVG Version: 6.00 Build 0)  -->
<svg version="1.1" id="Layer_1" xmlns="http://www.w3.org/2000/svg" xmlns:xlink="http://www.w3.org/1999/xlink" x="0px" y="0px"
	 viewBox="0 0 24 24" style="enable-background:new 0 0 24 24;" xml:space="preserve">
<style type="text/css">
	.st0{fill:#FFFFFF;}
</style>
<path class="st0" d="M22.4,0H1.5C0.7,0,0,0.7,0,1.5v21.1C0,23.3,0.7,24,1.5,24h21c0.8,0,1.5-0.7,1.5-1.5v-21C23.9,0.7,23.2,0,22.4,0
	z M17.5,16.5h-1.3c-0.2,0.7-0.9,1.3-1.7,1.3s-1.5-0.5-1.7-1.3H6.4c-0.3,0-0.5-0.2-0.5-0.5s0.2-0.5,0.5-0.5h6.3
	c0.2-0.7,0.9-1.3,1.7-1.3s1.5,0.5,1.7,1.3h1.3c0.3,0,0.5,0.2,0.5,0.5C18,16.3,17.8,16.5,17.5,16.5z M17.5,12.5h-6.3
	c-0.2,0.7-0.9,1.3-1.7,1.3s-1.5-0.6-1.7-1.3H6.4c-0.3,0-0.5-0.2-0.5-0.5s0.2-0.5,0.5-0.5h1.3c0.2-0.7,0.9-1.3,1.7-1.3
	s1.5,0.5,1.7,1.3h6.3c0.3,0,0.5,0.2,0.5,0.5S17.8,12.5,17.5,12.5z M17.5,8.5h-1.3c-0.2,0.7-0.9,1.3-1.7,1.3s-1.5-0.5-1.7-1.3H6.4
	C6.1,8.5,5.9,8.3,5.9,8s0.2-0.5,0.5-0.5h6.3c0.2-0.7,0.9-1.3,1.7-1.3s1.5,0.5,1.7,1.3h1.3C17.8,7.5,18,7.7,18,8S17.8,8.5,17.5,8.5z"
	/>
</svg>
