<?xml version="1.0" encoding="utf-8"?>
<!-- Generator: Adobe Illustrator 23.1.0, SVG Export Plug-In . SVG Version: 6.00 Build 0)  -->
<svg version="1.1" id="Layer_1" xmlns="http://www.w3.org/2000/svg" xmlns:xlink="http://www.w3.org/1999/xlink" x="0px" y="0px"
	 viewBox="0 0 24 24" style="enable-background:new 0 0 24 24;" xml:space="preserve">
<style type="text/css">
	.st0{fill:#FFFFFF;}
</style>
<path class="st0" d="M22.5,0h-21C0.7,0,0,0.7,0,1.5v21.1C0,23.3,0.7,24,1.5,24h21.1c0.8,0,1.5-0.7,1.5-1.5v-21C24,0.7,23.3,0,22.5,0
	z M9.2,17.3c0,0.3-0.3,0.6-0.6,0.6h-2c-0.3,0-0.6-0.3-0.6-0.6v-2c0-0.3,0.3-0.6,0.6-0.6h2c0.3,0,0.6,0.3,0.6,0.6V17.3z M9.3,13
	L9.3,13c-0.1,0.3-0.4,0.6-0.7,0.6h-2C6.3,13.5,6,13.3,6,13v-2c0-0.3,0.3-0.6,0.6-0.6h2c0.3,0,0.6,0.3,0.6,0.6V13z M9.3,8.7L9.3,8.7
	C9.2,9,8.8,9.3,8.5,9.3h-2C6.3,9.2,6,9,6,8.7v-2c0-0.3,0.3-0.6,0.6-0.6h2c0.3,0,0.6,0.3,0.6,0.6V8.7z M13.5,17.3
	c0,0.3-0.3,0.6-0.6,0.6h-2c-0.3,0-0.6-0.3-0.6-0.6v-2c0-0.3,0.3-0.6,0.6-0.6h2c0.3,0,0.6,0.3,0.6,0.6V17.3z M13.5,13
	c0,0.3-0.3,0.6-0.6,0.6h-2c-0.3,0-0.6-0.3-0.6-0.6v-2c0-0.3,0.3-0.6,0.6-0.6h2c0.3,0,0.6,0.3,0.6,0.6V13z M13.5,8.7
	c0,0.3-0.3,0.6-0.6,0.6h-2c-0.3,0-0.6-0.3-0.6-0.6v-2c0-0.3,0.3-0.6,0.6-0.6h2c0.3,0,0.6,0.3,0.6,0.6V8.7z M18,17.3
	c0,0.3-0.3,0.6-0.6,0.6h-2c-0.3,0-0.6-0.3-0.6-0.6v-2c0-0.3,0.3-0.6,0.6-0.6h2c0.3,0,0.6,0.3,0.6,0.6V17.3z M18,13
	c0,0.3-0.3,0.6-0.6,0.6h-2c-0.3,0-0.6-0.3-0.6-0.6v-2c0-0.3,0.3-0.6,0.6-0.6h2c0.3,0,0.6,0.3,0.6,0.6V13z M18,8.7
	c0,0.3-0.3,0.6-0.6,0.6h-2c-0.3,0-0.6-0.3-0.6-0.6v-2c0-0.3,0.3-0.6,0.6-0.6h2c0.3,0,0.6,0.3,0.6,0.6V8.7z"/>
</svg>
