<?xml version="1.0" encoding="utf-8"?>
<!-- Generator: Adobe Illustrator 25.0.0, SVG Export Plug-In . SVG Version: 6.00 Build 0)  -->
<svg version="1.1" id="Layer_1" xmlns="http://www.w3.org/2000/svg" xmlns:xlink="http://www.w3.org/1999/xlink" x="0px" y="0px"
	 viewBox="0 0 24 24" style="enable-background:new 0 0 24 24;" xml:space="preserve">
<style type="text/css">
	.st0{fill:#FFFFFF;}
</style>
<g>
	<rect x="8.8" y="7.4" class="st0" width="0.8" height="1.1"/>
	<rect x="11.1" y="6.9" class="st0" width="2.9" height="1.5"/>
	<rect x="8.8" y="12.6" class="st0" width="6.3" height="4.5"/>
	<path class="st0" d="M15.3,7v2.1c0,0.4-0.3,0.7-0.7,0.7H8.1c-0.4,0-0.8-0.3-0.8-0.7V6.9H6.6v10.2h1.2v-4.3c0-0.6,0.5-1.1,1.1-1.1
		h5.9c0.6,0,1.1,0.5,1.1,1.1v4.3h1.2V7.8L16.3,7H15.3z"/>
	<path class="st0" d="M22.4,0H1.5C0.7,0,0,0.7,0,1.5v21.1C0,23.3,0.7,24,1.5,24h21c0.8,0,1.5-0.7,1.5-1.5v-21
		C23.9,0.7,23.2,0,22.4,0z M18,18.5h-12c-0.4,0-0.7-0.3-0.7-0.7V6.2c0-0.4,0.3-0.7,0.7-0.7h1.9c0.3,0,0.5,0.1,0.6,0.4h1.2
		c0.1-0.2,0.4-0.4,0.6-0.4h3.9c0.1,0,0.2,0,0.3,0.1c0.1,0,0.2-0.1,0.3-0.1h1.9c0.2,0,0.4,0.1,0.5,0.2l1.2,1.2
		c0.1,0.1,0.2,0.3,0.2,0.5v10.4h0.1C18.7,18.2,18.3,18.5,18,18.5z"/>
</g>
</svg>
