<?xml version="1.0" encoding="utf-8"?>
<!-- Generator: Adobe Illustrator 25.0.0, SVG Export Plug-In . SVG Version: 6.00 Build 0)  -->
<svg version="1.1" id="Layer_1" xmlns="http://www.w3.org/2000/svg" xmlns:xlink="http://www.w3.org/1999/xlink" x="0px" y="0px"
	 viewBox="0 0 24 24" style="enable-background:new 0 0 24 24;" xml:space="preserve">
<style type="text/css">
	.st0{fill:#FFFFFF;}
</style>
<path class="st0" d="M22.4,0H1.5C0.7,0,0,0.7,0,1.5v21.1C0,23.3,0.7,24,1.5,24h21c0.8,0,1.5-0.7,1.5-1.5v-21C23.9,0.7,23.2,0,22.4,0
	z M11.6,17.1H6.3c-0.2,0-0.4-0.2-0.4-0.4V15h5.7V17.1z M11.8,14.4L11.8,14.4H6v-2h5.7C11.7,12.4,11.7,14.4,11.8,14.4z M11.8,11.6
	L11.8,11.6H6v-2h5.7C11.7,9.6,11.7,11.6,11.8,11.6z M11.8,8.9L11.8,8.9H6V7.3c0-0.2,0.2-0.4,0.4-0.4h5.3V8.9z M18,16.7
	c0,0.2-0.2,0.4-0.4,0.4h-5.3v-2H18V16.7z M18,14.4h-5.7v-2H18V14.4z M18,11.6h-5.7v-2H18V11.6z M18,8.9h-5.7v-2h5.3
	c0.2,0,0.4,0.2,0.4,0.4V8.9z"/>
</svg>
