<?xml version="1.0" encoding="utf-8"?>
<!-- Generator: Adobe Illustrator 25.0.0, SVG Export Plug-In . SVG Version: 6.00 Build 0)  -->
<svg version="1.1" id="Layer_1" xmlns="http://www.w3.org/2000/svg" xmlns:xlink="http://www.w3.org/1999/xlink" x="0px" y="0px"
	 viewBox="0 0 48 48" style="enable-background:new 0 0 48 48;" xml:space="preserve">
<style type="text/css">
	.st0{fill:#FFFFFF;}
</style>
<rect x="12" y="12" class="st0" width="24" height="24"/>
<path class="st0" d="M45,0H3C1.3,0,0,1.3,0,3v42c0,1.7,1.3,3,3,3h42c1.7,0,3-1.3,3-3V3C48,1.3,46.7,0,45,0z M32.7,16.8L32.7,16.8
	c1.6,1.9,2.5,4.3,2.6,6.8h-4.8c0-1.9-0.3-3.8-0.8-5.6C30.7,17.7,31.7,17.3,32.7,16.8L32.7,16.8L32.7,16.8z M24.4,24.4h5.2
	c0,1.8-0.3,3.6-0.8,5.4c-1.5-0.3-3-0.5-4.4-0.5V24.4z M26.8,13L26.8,13C26.8,13,26.9,13,26.8,13c0.2,0,0.3,0.1,0.3,0.1l0.3,0.1
	c0.1,0,0.2,0.1,0.3,0.1c0.1,0,0.2,0.1,0.3,0.1c0.1,0,0.2,0.1,0.2,0.1l0.3,0.1c0.1,0,0.2,0.1,0.2,0.1c0.1,0,0.2,0.1,0.3,0.1
	c0.1,0,0.2,0.1,0.2,0.1l0.3,0.2c0.1,0,0.2,0.1,0.2,0.1c0.1,0.1,0.2,0.1,0.3,0.2l0.2,0.2c0.1,0.1,0.2,0.1,0.3,0.2
	c0.1,0.1,0.2,0.1,0.2,0.2c0.1,0.1,0.2,0.1,0.2,0.2c0.1,0.1,0.1,0.1,0.2,0.2c0.1,0.1,0.2,0.1,0.2,0.2c0.1,0.1,0.1,0.1,0.2,0.2
	c0.1,0.1,0.2,0.1,0.2,0.2c0.1,0.1,0.1,0.1,0.2,0.2l0,0c-0.9,0.5-1.8,0.8-2.8,1.1C28.9,15.6,28,14.2,26.8,13L26.8,13L26.8,13z
	 M23.6,12.7L23.6,12.7v5.2c-1.4,0-2.8-0.2-4.2-0.5C20.3,14.8,21.9,12.9,23.6,12.7z M23.6,18.7v4.9h-5.2c0-1.8,0.3-3.6,0.8-5.4l0,0
	C20.6,18.5,22.1,18.7,23.6,18.7z M15.9,16.1C16,16,16,16,16.1,15.9c0.1-0.1,0.2-0.1,0.2-0.2c0.1-0.1,0.1-0.1,0.2-0.2
	c0.1-0.1,0.2-0.1,0.2-0.2c0.1-0.1,0.1-0.1,0.2-0.2c0.1-0.1,0.2-0.1,0.2-0.2c0.1-0.1,0.1-0.1,0.2-0.2c0.1-0.1,0.2-0.1,0.3-0.2
	c0.1-0.1,0.2-0.1,0.2-0.2c0.1-0.1,0.2-0.1,0.3-0.2c0.1,0,0.2-0.1,0.2-0.1c0.1-0.1,0.2-0.1,0.3-0.1c0.1,0,0.2-0.1,0.2-0.1
	c0.1,0,0.2-0.1,0.3-0.1c0.1,0,0.2-0.1,0.2-0.1l0.3-0.1c0.1,0,0.2-0.1,0.3-0.1c0.1,0,0.2-0.1,0.3-0.1c0.1,0,0.2-0.1,0.3-0.1l0.3-0.1
	c0.1,0,0.2,0,0.3-0.1h0.1l0,0l0,0l0,0c-1.2,1.2-2.1,2.6-2.6,4.2C17.7,17,16.7,16.6,15.9,16.1L15.9,16.1z M15.3,16.8L15.3,16.8
	c1,0.5,2,0.9,3.1,1.2c-0.5,1.8-0.8,3.7-0.8,5.6h-4.8C12.8,21.1,13.7,18.7,15.3,16.8z M12.7,24.4h4.8c0,1.9,0.3,3.8,0.8,5.6
	c-1.1,0.3-2.1,0.7-3.1,1.2C13.7,29.3,12.8,26.9,12.7,24.4z M21.1,34.9c-0.1,0-0.2,0-0.3-0.1l-0.3-0.1c-0.1,0-0.2-0.1-0.3-0.1
	c-0.1,0-0.2-0.1-0.3-0.1c-0.1,0-0.2-0.1-0.2-0.1l-0.3-0.1c-0.1,0-0.2-0.1-0.2-0.1c-0.1,0-0.2-0.1-0.3-0.1c-0.1,0-0.2-0.1-0.2-0.1
	l-0.3-0.2c-0.1,0-0.2-0.1-0.2-0.1c-0.1-0.1-0.2-0.1-0.3-0.2l-0.2-0.2c-0.1-0.1-0.2-0.1-0.3-0.2c-0.1-0.1-0.2-0.1-0.2-0.2
	c-0.1,0.1-0.2,0-0.2,0c-0.1-0.1-0.1-0.1-0.2-0.2c-0.1-0.1-0.2-0.1-0.2-0.2c-0.1-0.1-0.1-0.1-0.2-0.2c-0.1-0.1-0.2-0.1-0.2-0.2
	C16.1,32,16.1,32,16,31.9l0,0c0.9-0.5,1.8-0.8,2.8-1.1l0,0c0.5,1.6,1.4,3,2.6,4.2C21.2,35,21.1,35,21.1,34.9z M23.6,30.1v5.2
	c-1.7-0.2-3.2-2.1-4.2-4.7C20.8,30.3,22.2,30.1,23.6,30.1L23.6,30.1z M23.6,29.3c-1.5,0-3,0.2-4.4,0.5c-0.5-1.8-0.8-3.6-0.8-5.4l0,0
	h5.2C23.6,24.4,23.6,29.3,23.6,29.3z M24.4,12.7c1.7,0.2,3.2,2.1,4.2,4.7c-1.4,0.3-2.8,0.5-4.2,0.5C24.4,17.9,24.4,12.7,24.4,12.7z
	 M24.4,18.7c1.5,0,3-0.2,4.4-0.5l0,0c0.5,1.8,0.8,3.6,0.8,5.4h-5.2C24.4,23.6,24.4,18.7,24.4,18.7z M24.4,35.3v-5.2l0,0
	c1.4,0,2.8,0.2,4.2,0.5C27.6,33.2,26.1,35.1,24.4,35.3z M32.1,31.9c0,0.1-0.1,0.1-0.2,0.2s-0.2,0.2-0.2,0.2
	c-0.1,0.1-0.1,0.1-0.2,0.2c-0.1,0.1-0.2,0.1-0.2,0.2c-0.1,0.1-0.1,0.1-0.2,0.2C31,33,30.9,33,30.9,33.1c-0.1,0.1-0.1,0.1-0.2,0.2
	c-0.1,0.1-0.2,0.1-0.3,0.2c-0.1,0.1-0.2,0.1-0.2,0.2c-0.1,0.1-0.2,0.1-0.3,0.2C29.8,34,29.7,34,29.7,34c-0.1,0.1-0.2,0.1-0.3,0.1
	c-0.1,0-0.2,0.1-0.2,0.1c-0.1,0-0.2,0.1-0.3,0.1c-0.1,0-0.2,0.1-0.2,0.1l-0.3,0.1c-0.1,0-0.2,0.1-0.3,0.1c-0.1,0-0.2,0.1-0.3,0.1
	c-0.1,0-0.2,0.1-0.3,0.1l-0.3,0.1c-0.1,0-0.2,0.1-0.3,0.1h-0.1c1.2-1.2,2.1-2.6,2.6-4.2l0,0C30.3,31,31.3,31.4,32.1,31.9
	C32.2,31.9,32.1,31.9,32.1,31.9z M32.7,31.2c-1-0.5-2-0.9-3.1-1.2c0.5-1.8,0.8-3.7,0.8-5.6l0,0h4.8C35.2,26.9,34.3,29.3,32.7,31.2z"
	/>
</svg>
