<?xml version="1.0" encoding="utf-8"?>
<!-- Generator: Adobe Illustrator 25.0.0, SVG Export Plug-In . SVG Version: 6.00 Build 0)  -->
<svg version="1.1" id="Layer_1" xmlns="http://www.w3.org/2000/svg" xmlns:xlink="http://www.w3.org/1999/xlink" x="0px" y="0px"
	 viewBox="0 0 24 24" style="enable-background:new 0 0 24 24;" xml:space="preserve">
<style type="text/css">
	.st0{fill:#FFFFFF;}
</style>
<path class="st0" d="M21,0H3.1C1.4,0,0,1.4,0,3.1v17.7C0,22.6,1.4,24,3.1,24h17.8c1.7,0,3.1-1.4,3.1-3.1V3.1C24.1,1.4,22.7,0,21,0z
	 M17.6,15.8c0.5,0.5,0.5,1.3,0,1.8C17.4,17.8,17,18,16.7,18s-0.7-0.1-0.9-0.4L12,13.8l-3.8,3.8C7.9,17.9,7.6,18,7.3,18
	c-0.3,0-0.7-0.1-0.9-0.4c-0.5-0.5-0.5-1.3,0-1.8l3.8-3.8L6.4,8.2c-0.5-0.5-0.5-1.3,0-1.8s1.3-0.5,1.8,0l3.8,3.8l3.8-3.8
	c0.5-0.5,1.3-0.5,1.8,0s0.5,1.3,0,1.8L13.8,12L17.6,15.8z"/>
</svg>
