<?xml version="1.0" encoding="utf-8"?>
<!-- Generator: Adobe Illustrator 25.0.0, SVG Export Plug-In . SVG Version: 6.00 Build 0)  -->
<svg version="1.1" id="Layer_1" xmlns="http://www.w3.org/2000/svg" xmlns:xlink="http://www.w3.org/1999/xlink" x="0px" y="0px"
	 viewBox="0 0 24 24" style="enable-background:new 0 0 24 24;" xml:space="preserve">
<style type="text/css">
	.st0{fill:#FFFFFF;}
</style>
<path class="st0" d="M21,0H3.1C1.4,0,0,1.4,0,3.1v17.7C0,22.6,1.4,24,3.1,24h17.8c1.7,0,3.1-1.4,3.1-3.1V3.1C24.1,1.4,22.7,0,21,0z
	 M9.9,16.8V18H6v-3.9h1.2v2l2.5-2.5l0.8,0.8L8,16.8H9.9z M9.7,10.5L7.2,8v2H6V6h3.9v1.2H8l2.5,2.5L9.7,10.5z M18,18h-3.9v-1.2h2
	l-2.5-2.5l0.8-0.8l2.5,2.5v-2H18V18z M18,9.9h-1.2V8l-2.5,2.5l-0.8-0.8L16,7.2h-2V6h4V9.9z"/>
</svg>
