<?xml version="1.0" encoding="utf-8"?>
<!-- Generator: Adobe Illustrator 25.0.0, SVG Export Plug-In . SVG Version: 6.00 Build 0)  -->
<svg version="1.1" id="Layer_1" xmlns="http://www.w3.org/2000/svg" xmlns:xlink="http://www.w3.org/1999/xlink" x="0px" y="0px"
	 viewBox="0 0 24 24" style="enable-background:new 0 0 24 24;" xml:space="preserve">
<style type="text/css">
	.st0{fill:#FFFFFF;}
</style>
<g>
	<rect x="7.5" y="8.2" class="st0" width="3.3" height="1.7"/>
	<rect x="11.3" y="16.4" class="st0" width="3.4" height="1.4"/>
	<rect x="7.5" y="6.2" class="st0" width="3.3" height="1.6"/>
	<rect x="11.3" y="14.5" class="st0" width="3.4" height="1.5"/>
	<path class="st0" d="M11.3,14h3.4v-1.6h-3.4C11.3,12.4,11.3,14,11.3,14z M11.6,12.8h2.7v0.9h-2.7V12.8z"/>
	<rect x="5.4" y="12.5" class="st0" width="1.6" height="1.6"/>
	<rect x="5.4" y="10.3" class="st0" width="1.6" height="1.7"/>
	<rect x="5.4" y="8.2" class="st0" width="1.6" height="1.7"/>
	<rect x="7.5" y="10.3" class="st0" width="3.3" height="1.7"/>
	<path class="st0" d="M7.5,14h3.3v-1.6H7.5V14z M7.8,12.7h2.7v0.9H7.8V12.7z"/>
	<rect x="7.5" y="14.5" class="st0" width="3.3" height="1.5"/>
	<rect x="7.5" y="16.4" class="st0" width="3.3" height="1.4"/>
	<rect x="15.1" y="8.2" class="st0" width="3.5" height="1.7"/>
	<rect x="15.1" y="10.3" class="st0" width="3.5" height="1.7"/>
	<path class="st0" d="M15.1,6.2v1.6h3.5V6.2c0,0,0-0.1-0.1-0.1L15.1,6.2L15.1,6.2z"/>
	<path class="st0" d="M15.1,14h3.5v-1.6h-3.5V14z M15.5,12.7h2.7v0.9h-2.7C15.5,13.6,15.5,12.7,15.5,12.7z"/>
	<path class="st0" d="M21,0H3.1C1.4,0,0,1.4,0,3.1v17.7C0,22.6,1.4,24,3.1,24h17.8c1.7,0,3.1-1.4,3.1-3.1V3.1C24.1,1.4,22.7,0,21,0z
		 M19,17.8c0,0.2-0.2,0.4-0.4,0.5l0,0l0,0h-0.1h-13H5.4H5.2v-0.1C5,18.1,5,17.9,5,17.8V6.2c0-0.3,0.2-0.5,0.5-0.5h13
		c0.3,0,0.5,0.2,0.5,0.5V17.8z"/>
	<path class="st0" d="M5.4,17.8L5.4,17.8H7v-1.4H5.4V17.8z"/>
	<rect x="11.3" y="8.2" class="st0" width="3.4" height="1.7"/>
	<rect x="11.3" y="10.3" class="st0" width="3.4" height="1.7"/>
	<rect x="11.3" y="6.2" class="st0" width="3.4" height="1.6"/>
	<path class="st0" d="M15.1,17.8h3.4c0,0,0,0,0-0.1v-1.4H15v1.5H15.1z"/>
	<rect x="15.1" y="14.5" class="st0" width="3.5" height="1.5"/>
	<rect x="5.4" y="14.5" class="st0" width="1.6" height="1.5"/>
</g>
</svg>
