<?xml version="1.0" encoding="utf-8"?>
<!-- Generator: Adobe Illustrator 25.0.0, SVG Export Plug-In . SVG Version: 6.00 Build 0)  -->
<svg version="1.1" id="Layer_1" xmlns="http://www.w3.org/2000/svg" xmlns:xlink="http://www.w3.org/1999/xlink" x="0px" y="0px"
	 viewBox="0 0 24 24" style="enable-background:new 0 0 24 24;" xml:space="preserve">
<style type="text/css">
	.st0{fill:#FFFFFF;}
</style>
<g>
	<rect x="11.3" y="9.8" class="st0" width="3.4" height="1.7"/>
	<path class="st0" d="M7.5,13.5h3.3v-1.6H7.5V13.5z M7.8,12.2h2.7v0.9H7.8V12.2z"/>
	<rect x="11.3" y="15.9" class="st0" width="3.4" height="1.4"/>
	<path class="st0" d="M11.3,13.5h3.4v-1.6h-3.4C11.3,11.9,11.3,13.5,11.3,13.5z M11.6,12.3h2.7v0.9h-2.7V12.3z"/>
	<rect x="11.3" y="14" class="st0" width="3.4" height="1.5"/>
	<rect x="5.4" y="14" class="st0" width="1.6" height="1.5"/>
	<rect x="11.3" y="7.7" class="st0" width="3.4" height="1.7"/>
	<path class="st0" d="M5.4,17.3L5.4,17.3H7v-1.4H5.4V17.3z"/>
	<rect x="7.5" y="15.9" class="st0" width="3.3" height="1.4"/>
	<rect x="5.4" y="11.9" class="st0" width="1.6" height="1.6"/>
	<rect x="7.5" y="14" class="st0" width="3.3" height="1.5"/>
	<rect x="15.1" y="9.8" class="st0" width="3.5" height="1.7"/>
	<rect x="15.1" y="7.7" class="st0" width="3.5" height="1.7"/>
	<path class="st0" d="M15.1,13.5h3.5v-1.6h-3.5V13.5z M15.5,12.2h2.7v0.9h-2.7C15.5,13.1,15.5,12.2,15.5,12.2z"/>
	<rect x="11.3" y="5.7" class="st0" width="3.4" height="1.6"/>
	<path class="st0" d="M15.1,5.7v1.6h3.5V5.7c0,0,0-0.1-0.1-0.1L15.1,5.7L15.1,5.7z"/>
	<path class="st0" d="M21,0H3.1C1.4,0,0,1.4,0,3.1v17.7C0,22.6,1.4,24,3.1,24h17.8c1.7,0,3.1-1.4,3.1-3.1V3.1C24.1,1.4,22.7,0,21,0z
		 M4.7,11.1v-5H2.4c0,0-0.1-0.1-0.1-0.1c0-0.1,0-0.2,0-0.2l4-4l0.1-0.1c0.1,0,0.1,0,0.1,0.1l4,4c0.1,0.1,0.1,0.1,0,0.2
		c0,0.1-0.1,0.1-0.2,0.1h-2v5c0,0.1-0.1,0.2-0.2,0.2H4.9C4.7,11.3,4.7,11.2,4.7,11.1z M19,17.3c0,0.2-0.2,0.4-0.4,0.5l0,0l0,0h-0.1
		h-13H5.4H5.2v-0.1C5,17.6,5,17.4,5,17.3v-5.8h0.5l0,0H7l0,0h0.5l0,0h3.3V9.8H8.5V9.4h2.3V7.7H8.5V7.2h2.3v-2h7.7
		c0.3,0,0.5,0.2,0.5,0.5V17.3z"/>
	<path class="st0" d="M15.1,17.3h3.4c0,0,0,0,0-0.1v-1.4H15v1.5H15.1z"/>
	<rect x="15.1" y="14" class="st0" width="3.5" height="1.5"/>
</g>
</svg>
