<?xml version="1.0" encoding="utf-8"?>
<!-- Generator: Adobe Illustrator 25.0.0, SVG Export Plug-In . SVG Version: 6.00 Build 0)  -->
<svg version="1.1" id="Layer_1" xmlns="http://www.w3.org/2000/svg" xmlns:xlink="http://www.w3.org/1999/xlink" x="0px" y="0px"
	 viewBox="0 0 24 24" style="enable-background:new 0 0 24 24;" xml:space="preserve">
<style type="text/css">
	.st0{fill:#FFFFFF;}
</style>
<g>
	<path class="st0" d="M21,0H3.1C1.4,0,0,1.4,0,3.1v17.7C0,22.6,1.4,24,3.1,24h17.8c1.7,0,3.1-1.4,3.1-3.1V3.1C24.1,1.4,22.7,0,21,0z
		 M16.4,16.8h-0.1c0,0.2-0.1,0.4-0.3,0.4c-1.3,0.5-2.7,0.8-4,0.8c-1.4,0-2.8-0.3-4-0.8c-0.2-0.1-0.3-0.3-0.3-0.4v-4.6
		c0-0.2,0.1-0.4,0.3-0.4c0.1-0.1,0.3-0.1,0.5-0.2c0,0,0.1,0,0.1-0.1v-2C8.5,7.6,10.1,6,12,6s3.5,1.6,3.5,3.5v2c0,0,0,0.1,0.1,0.1
		c0.2,0.1,0.3,0.1,0.5,0.2c0.2,0.1,0.3,0.3,0.3,0.4V16.8z"/>
	<path class="st0" d="M12,7.2c-1.3,0-2.3,1-2.3,2.3v1.7C10.5,11,11.2,11,12,11s1.5,0.1,2.3,0.2V9.5C14.3,8.2,13.3,7.2,12,7.2z"/>
	<path class="st0" d="M12,12.6c-0.5,0-1,0.4-1,1c0,0.4,0.2,0.6,0.5,0.8V16c0,0.3,0.2,0.5,0.5,0.5s0.5-0.2,0.5-0.5v-1.6
		c0.3-0.2,0.5-0.5,0.5-0.8C13,13.1,12.5,12.6,12,12.6z"/>
</g>
</svg>
