<?xml version="1.0" encoding="utf-8"?>
<!-- Generator: Adobe Illustrator 25.0.0, SVG Export Plug-In . SVG Version: 6.00 Build 0)  -->
<svg version="1.1" id="Layer_1" xmlns="http://www.w3.org/2000/svg" xmlns:xlink="http://www.w3.org/1999/xlink" x="0px" y="0px"
	 viewBox="0 0 24 24" style="enable-background:new 0 0 24 24;" xml:space="preserve">
<style type="text/css">
	.st0{fill:#FFFFFF;}
</style>
<g>
	<path class="st0" d="M18.5,15.8h-1.8v-2.4c0-0.2-0.1-0.3-0.3-0.3s-0.3,0.1-0.3,0.3v2.8c0,0.2,0.1,0.3,0.3,0.3h2.1
		c0.2,0,0.3-0.1,0.3-0.3C18.8,15.9,18.7,15.8,18.5,15.8z"/>
	<path class="st0" d="M21,0H3.1C1.4,0,0,1.4,0,3.1v17.7C0,22.6,1.4,24,3.1,24h17.8c1.7,0,3.1-1.4,3.1-3.1V3.1C24.1,1.4,22.7,0,21,0z
		 M15.3,4.3L15.3,4.3c0-0.4,0.3-0.7,0.7-0.7l0,0c0.4,0,0.7,0.3,0.7,0.7v1.6h-1.4C15.3,5.9,15.3,4.3,15.3,4.3z M7.2,4.3
		c0-0.4,0.3-0.7,0.7-0.7s0.7,0.3,0.7,0.7v1.6H7.2V4.3z M5,6.6c0-0.7,0.6-1.3,1.3-1.3h0.3v0.9l0,0c0,0.2,0.1,0.3,0.3,0.3H9
		c0.2,0,0.3-0.1,0.3-0.3V5.3h5.3v0.9l0,0c0,0.2,0.1,0.3,0.3,0.3H17l0,0c0.2,0,0.3-0.1,0.3-0.3V5.3h0.3c0.7,0,1.3,0.6,1.3,1.3V8H5
		V6.6z M6.3,18.5c-0.7,0-1.3-0.6-1.3-1.3V8.6h13.9v2.3c-0.7-0.3-1.5-0.5-2.2-0.5c-2.9,0-5.3,2.4-5.3,5.3c0,1,0.3,1.9,0.8,2.7
		L6.3,18.5L6.3,18.5z M16.7,20.4c-2.6,0-4.7-2.1-4.7-4.7s2.1-4.7,4.7-4.7s4.7,2.1,4.7,4.7C21.4,18.3,19.3,20.4,16.7,20.4z"/>
</g>
</svg>
