<?xml version="1.0" encoding="utf-8"?>
<!-- Generator: Adobe Illustrator 25.0.0, SVG Export Plug-In . SVG Version: 6.00 Build 0)  -->
<svg version="1.1" id="Layer_1" xmlns="http://www.w3.org/2000/svg" xmlns:xlink="http://www.w3.org/1999/xlink" x="0px" y="0px"
	 viewBox="0 0 24 24" style="enable-background:new 0 0 24 24;" xml:space="preserve">
<style type="text/css">
	.st0{fill:#FFFFFF;}
</style>
<path class="st0" d="M21,0H3.1C1.4,0,0,1.4,0,3.1v17.7C0,22.6,1.4,24,3.1,24h17.8c1.7,0,3.1-1.4,3.1-3.1V3.1C24.1,1.4,22.7,0,21,0z
	 M10.5,17.4H9.3v-2L6.8,18L6,17.2l2.5-2.5H6.6v-1.2h3.9V17.4z M10.5,10.4H6.6V9.3h2L6,6.8L6.8,6l2.5,2.5v-2h1.2V10.4z M17.2,18
	l-2.5-2.5v1.9h-1.2v-3.9h3.9v1.2h-2l2.5,2.5L17.2,18z M15.5,9.3h1.9v1.2h-3.9V6.6h1.2v2L17.2,6L18,6.8L15.5,9.3z"/>
</svg>
