<?xml version="1.0" encoding="utf-8"?>
<!-- Generator: Adobe Illustrator 25.0.0, SVG Export Plug-In . SVG Version: 6.00 Build 0)  -->
<svg version="1.1" id="Layer_1" xmlns="http://www.w3.org/2000/svg" xmlns:xlink="http://www.w3.org/1999/xlink" x="0px" y="0px"
	 viewBox="0 0 24 24" style="enable-background:new 0 0 24 24;" xml:space="preserve">
<style type="text/css">
	.st0{fill:#FFFFFF;}
</style>
<path class="st0" d="M21,0H3.1C1.4,0,0,1.4,0,3.1v17.7C0,22.6,1.4,24,3.1,24h17.8c1.7,0,3.1-1.4,3.1-3.1V3.1C24.1,1.4,22.7,0,21,0z
	 M6,9.2c0.8,0,1.5,0.7,1.5,1.5c0,0.2,0,0.3-0.1,0.5l1.4,0.7c0.3-0.4,0.7-0.7,1.2-0.7c0.3,0,0.7,0.1,0.9,0.3l1.9-2
	c-0.2-0.3-0.3-0.6-0.3-0.9c0-0.8,0.7-1.5,1.5-1.5c0.4,0,0.8,0.2,1.1,0.5l1.6-1.3c-0.1-0.2-0.2-0.5-0.2-0.7c0-0.8,0.7-1.5,1.5-1.5
	s1.5,0.7,1.5,1.5S18.8,7.2,18,7.2c-0.4,0-0.8-0.2-1.1-0.5L15.3,8c0.1,0.2,0.2,0.5,0.2,0.7c0,0.8-0.7,1.5-1.5,1.5
	c-0.3,0-0.6-0.1-0.9-0.3l-1.9,2c0.2,0.2,0.3,0.6,0.3,0.9c0,0.8-0.7,1.5-1.5,1.5s-1.5-0.7-1.5-1.5c0-0.2,0-0.3,0.1-0.5l-1.4-0.7
	C7,11.9,6.5,12.1,6,12.1c-0.8,0-1.5-0.7-1.5-1.5S5.2,9.2,6,9.2z M19.5,9.6v8c0,0.8-0.7,1.5-1.5,1.5s-1.5-0.7-1.5-1.5v-8
	c0-0.8,0.7-1.5,1.5-1.5S19.5,8.7,19.5,9.6z M15.5,12.5v5c0,0.8-0.7,1.5-1.5,1.5s-1.5-0.7-1.5-1.5v-5c0-0.8,0.7-1.5,1.5-1.5
	S15.5,11.7,15.5,12.5z M11.5,16.5v1c0,0.8-0.7,1.5-1.5,1.5s-1.5-0.7-1.5-1.5v-1c0-0.8,0.7-1.5,1.5-1.5S11.5,15.7,11.5,16.5z
	 M4.5,14.5C4.5,13.6,5.2,13,6,13s1.5,0.7,1.5,1.5v3.1C7.5,18.4,6.9,19,6,19c-0.8,0-1.5-0.7-1.5-1.5V14.5z M20.2,19.8H3.8
	c-0.1,0-0.2-0.1-0.2-0.2s0.1-0.2,0.2-0.2h16.4c0.1,0,0.2,0.1,0.2,0.2C20.4,19.7,20.3,19.8,20.2,19.8z"/>
</svg>
