<?xml version="1.0" encoding="utf-8"?>
<!-- Generator: Adobe Illustrator 25.0.0, SVG Export Plug-In . SVG Version: 6.00 Build 0)  -->
<svg version="1.1" id="Layer_1" xmlns="http://www.w3.org/2000/svg" xmlns:xlink="http://www.w3.org/1999/xlink" x="0px" y="0px"
	 viewBox="0 0 24 24" style="enable-background:new 0 0 24 24;" xml:space="preserve">
<style type="text/css">
	.st0{fill:#FFFFFF;}
	.st1{opacity:0.1;}
</style>
<g>
	<g>
		<path class="st0" d="M20.9,1C22,1,23,2,23,3.1v17.7c0,1.2-1,2.1-2.1,2.1H3.1C2,23,1,22,1,20.9V3.1C1,2,2,1,3.1,1H20.9 M20.9,0H3.1
			C1.4,0,0,1.4,0,3.1v17.7C0,22.6,1.4,24,3.1,24h17.7c1.7,0,3.1-1.4,3.1-3.1V3.1C24,1.4,22.6,0,20.9,0L20.9,0z"/>
	</g>
	<g class="st1">
		<path class="st0" d="M21,0H3.1C1.4,0,0,1.4,0,3.1v17.7C0,22.6,1.4,24,3.1,24h17.8c1.7,0,3.1-1.4,3.1-3.1V3.1C24.1,1.4,22.7,0,21,0
			z"/>
	</g>
	<path class="st0" d="M13.6,12l4.1-4.3c0.5-0.5,0.4-1.2,0-1.7c-0.5-0.5-1.2-0.4-1.7,0l-4,4.2L8,6C7.6,5.6,6.8,5.5,6.3,6
		s-0.5,1.2,0,1.7l4.1,4.3l-4.1,4.3c-0.5,0.5-0.4,1.2,0,1.7c0.2,0.2,0.5,0.3,0.8,0.3s0.6-0.1,0.9-0.4l4-4.2l4,4.2
		c0.2,0.2,0.6,0.4,0.9,0.4s0.6-0.1,0.8-0.3c0.5-0.5,0.5-1.2,0-1.7L13.6,12z"/>
</g>
</svg>
