<?xml version="1.0" encoding="UTF-8"?>
<svg enable-background="new 0 0 300 300" version="1.1" viewBox="0 0 300 300" xmlns="http://www.w3.org/2000/svg">
 <path d="m128.8 49c-44.9 0-80 35.1-80 80s35.1 80 80 80 80-35.1 80-80c0-44.8-35.1-80-80-80zm0 13.4c37.4 0 66.6 29.3 66.6 66.6s-29.3 66.6-66.6 66.6c-37.4 0-66.6-29.3-66.6-66.6s29.3-66.6 66.6-66.6z"/>
 <path d="m296 284.5-71.8-71.8c19.9-21.9 31.9-51.8 31.9-83.7 0-69.8-57.8-127.6-127.6-127.6s-127.5 57.9-127.5 127.7 57.8 127.6 127.6 127.6c33.9 0 63.8-12 85.7-31.9l71.8 71.8c2 2 4 2 6 2s4-2 4-2c3.9-2.1 3.9-8.1-0.1-12.1zm-62.7-155.5c0 58.6-45.9 104.5-104.5 104.5s-104.5-45.9-104.5-104.5 45.9-104.5 104.5-104.5 104.5 45.9 104.5 104.5z"/>
</svg>
