<?xml version="1.0" encoding="utf-8"?>
<!-- Generator: Adobe Illustrator 25.0.0, SVG Export Plug-In . SVG Version: 6.00 Build 0)  -->
<svg version="1.1" id="Layer_1" xmlns="http://www.w3.org/2000/svg" xmlns:xlink="http://www.w3.org/1999/xlink" x="0px" y="0px"
	 viewBox="0 0 24 24" style="enable-background:new 0 0 24 24;" xml:space="preserve">
<style type="text/css">
	.st0{fill:#FFFFFF;}
</style>
<path class="st0" d="M22.4,0H1.5C0.7,0,0,0.7,0,1.5v21.1C0,23.3,0.7,24,1.5,24h21c0.8,0,1.5-0.7,1.5-1.5v-21C23.9,0.7,23.2,0,22.4,0
	z M18,11.4l-0.8,0.1c0-0.2-0.1-0.5-0.2-0.7l0.7-0.2C17.9,10.9,17.9,11.2,18,11.4z M17,8.9c0.2,0.2,0.3,0.5,0.4,0.7L16.7,10
	c-0.1-0.2-0.2-0.4-0.4-0.6L17,8.9z M14,6.7c0.3,0.1,0.5,0.2,0.8,0.3l-0.3,0.7c-0.2-0.1-0.4-0.2-0.7-0.3L14,6.7z M12,18.5
	c-1.6,0-3.1-0.6-4.3-1.8c-1.1-1.1-1.8-2.7-1.8-4.3c0-1.6,0.6-3.1,1.8-4.3c0.9-0.9,2.2-1.5,3.5-1.7L10.8,6l0.5-0.5l1.3,1.3L11.3,8
	l-0.5-0.5L11,7.2c-2.5,0.5-4.3,2.6-4.3,5.2c0,2.9,2.4,5.3,5.3,5.3V18.5z M13,18.4l-0.1-0.8c0.2,0,0.5-0.1,0.7-0.2l0.2,0.7
	C13.6,18.3,13.3,18.4,13,18.4z M12,15.9c-1.9,0-3.4-1.5-3.4-3.4S10.1,9,12,9c1.9,0,3.4,1.5,3.4,3.4S13.9,15.9,12,15.9z M14.8,17.8
	l-0.4-0.7c0.2-0.1,0.4-0.2,0.6-0.4l0.4,0.6C15.3,17.5,15.1,17.7,14.8,17.8z M15.2,8.2l0.5-0.6c0.2,0.2,0.4,0.3,0.6,0.5l-0.5,0.5
	C15.6,8.5,15.4,8.3,15.2,8.2z M16.3,16.7l-0.5-0.5c0.2-0.2,0.3-0.4,0.5-0.5l0.6,0.5C16.7,16.3,16.5,16.5,16.3,16.7z M17.4,15.1
	l-0.7-0.3c0.1-0.2,0.2-0.4,0.3-0.7l0.7,0.2C17.7,14.6,17.6,14.9,17.4,15.1z M18,13.3l-0.8-0.1c0-0.2,0.1-0.5,0.1-0.7l0.8,0
	C18.1,12.8,18,13.1,18,13.3z"/>
</svg>
