<?xml version="1.0" encoding="utf-8"?>
<!-- Generator: Adobe Illustrator 25.0.0, SVG Export Plug-In . SVG Version: 6.00 Build 0)  -->
<svg version="1.1" id="Layer_1" xmlns="http://www.w3.org/2000/svg" xmlns:xlink="http://www.w3.org/1999/xlink" x="0px" y="0px"
	 viewBox="0 0 24 24" style="enable-background:new 0 0 24 24;" xml:space="preserve">
<style type="text/css">
	.st0{fill:#FFFFFF;}
</style>
<path class="st0" d="M21,0H3.1C1.4,0,0,1.4,0,3.1v17.7C0,22.6,1.4,24,3.1,24h17.8c1.7,0,3.1-1.4,3.1-3.1V3.1C24.1,1.4,22.7,0,21,0z
	 M17.7,16.3c0.5,0.5,0.4,1.2,0,1.7c-0.2,0.2-0.5,0.3-0.8,0.3s-0.6-0.1-0.9-0.4l-4-4.2L8,18c-0.2,0.2-0.6,0.4-0.9,0.4
	s-0.6-0.1-0.8-0.3c-0.5-0.5-0.5-1.2,0-1.7l4.1-4.3L6.3,7.7C5.8,7.2,5.9,6.4,6.3,6C6.8,5.5,7.6,5.6,8,6l4,4.2L16,6
	c0.5-0.5,1.2-0.5,1.7,0s0.5,1.2,0,1.7L13.6,12L17.7,16.3z"/>
</svg>
