<?xml version="1.0" encoding="utf-8"?>
<!-- Generator: Adobe Illustrator 25.0.0, SVG Export Plug-In . SVG Version: 6.00 Build 0)  -->
<svg version="1.1" id="Layer_1" xmlns="http://www.w3.org/2000/svg" xmlns:xlink="http://www.w3.org/1999/xlink" x="0px" y="0px"
	 viewBox="0 0 24 24" style="enable-background:new 0 0 24 24;" xml:space="preserve">
<style type="text/css">
	.st0{fill:#FFFFFF;}
</style>
<g>
	<path class="st0" d="M18.7,6.5h-2v11h2c0.4,0,0.8-0.3,0.8-0.6V7.1C19.5,6.8,19.2,6.5,18.7,6.5z"/>
	<path class="st0" d="M4.5,7.1v9.7c0,0.3,0.4,0.6,0.8,0.6h10.3v-11H5.3C5,6.5,4.7,6.7,4.5,7.1z"/>
	<path class="st0" d="M21,0H3.1C1.4,0,0,1.4,0,3.1v17.7C0,22.6,1.4,24,3.1,24h17.8c1.7,0,3.1-1.4,3.1-3.1V3.1C24.1,1.4,22.7,0,21,0z
		 M18.7,18.5H5.3c-1,0-1.8-0.7-1.8-1.6V7c0.1-1,0.9-1.5,1.8-1.5h13.3c1,0,1.8,0.7,1.8,1.6v9.8h0.1C20.5,17.8,19.7,18.5,18.7,18.5z"
		/>
</g>
</svg>
