<?xml version="1.0" encoding="utf-8"?>
<!-- Generator: Adobe Illustrator 25.0.0, SVG Export Plug-In . SVG Version: 6.00 Build 0)  -->
<svg version="1.1" id="Layer_1" xmlns="http://www.w3.org/2000/svg" xmlns:xlink="http://www.w3.org/1999/xlink" x="0px" y="0px"
	 viewBox="0 0 24 24" style="enable-background:new 0 0 24 24;" xml:space="preserve">
<style type="text/css">
	.st0{fill:#FFFFFF;}
</style>
<g>
	<path class="st0" d="M11.9,8.7c-1.8,0-3.3,1.5-3.3,3.3s1.5,3.3,3.3,3.3s3.3-1.5,3.3-3.3S13.8,8.7,11.9,8.7z M11.9,13.4
		c-0.8,0-1.4-0.6-1.4-1.4s0.6-1.4,1.4-1.4c0.8,0,1.4,0.6,1.4,1.4S12.8,13.4,11.9,13.4z"/>
	<path class="st0" d="M22.4,0H1.5C0.7,0,0,0.7,0,1.5v21.1C0,23.3,0.7,24,1.5,24h21c0.8,0,1.5-0.7,1.5-1.5v-21
		C23.9,0.7,23.2,0,22.4,0z M20,12.9c0,0.2-0.1,0.4-0.3,0.4L17.8,14c-0.1,0.2-0.2,0.4-0.3,0.6l0.9,1.8c0.1,0.2,0.1,0.4-0.1,0.5
		L17,18.3c-0.1,0.1-0.4,0.2-0.5,0.1l-1.8-0.9c-0.2,0.1-0.4,0.2-0.6,0.3l-0.6,1.9C13.3,19.9,13.2,20,13,20h-1.9
		c-0.2,0-0.4-0.1-0.4-0.3l-0.8-2c-0.2-0.1-0.4-0.2-0.6-0.3l-1.8,0.9c-0.2,0.1-0.4,0.1-0.5-0.1L5.6,17c-0.1-0.1-0.2-0.4-0.1-0.5
		l0.9-1.8c-0.1-0.2-0.2-0.4-0.3-0.6l-1.9-0.6c-0.2-0.2-0.3-0.4-0.3-0.6V11c0-0.2,0.1-0.4,0.3-0.4l2-0.6c0.1-0.2,0.2-0.4,0.3-0.6
		l-1-1.8C5.4,7.4,5.5,7.2,5.6,7l1.3-1.3C7,5.6,7.3,5.5,7.4,5.6l1.8,0.9c0.3-0.1,0.5-0.2,0.7-0.2l0.6-1.9C10.6,4.1,10.8,4,11.1,4h1.9
		c0.2,0,0.4,0.1,0.4,0.3l0.6,2c0.2,0.1,0.4,0.2,0.6,0.3l1.8-0.9c0.2-0.1,0.4-0.1,0.5,0.1L18.3,7c0.1,0.1,0.2,0.4,0.1,0.5l-0.9,1.8
		c0.1,0.2,0.2,0.4,0.3,0.6l1.9,0.6c0.2,0.1,0.3,0.2,0.3,0.4C19.9,10.9,19.9,12.9,20,12.9z"/>
</g>
</svg>
