<?xml version="1.0" encoding="UTF-8"?>
<svg enable-background="new 0 0 24 24" version="1.1" viewBox="0 0 24 24" xmlns="http://www.w3.org/2000/svg">
 <style type="text/css">.st0{fill:#FFFFFF;}</style>
 <path class="st0" d="m12 0c-6.6 0-12 5.4-12 12s5.4 12 12 12 12-5.4 12-12-5.4-12-12-12zm5.8 16.7c0.3 0.3 0.3 0.8 0 1.1-0.1 0.1-0.3 0.2-0.5 0.2s-0.4-0.1-0.5-0.2l-4.8-4.7-4.7 4.7c-0.2 0.1-0.3 0.2-0.5 0.2s-0.4-0.1-0.5-0.2c-0.3-0.3-0.3-0.8 0-1.1l4.7-4.7-4.8-4.7c-0.3-0.3-0.3-0.8 0-1.1s0.8-0.3 1.1 0l4.7 4.7 4.7-4.7c0.3-0.3 0.8-0.3 1.1 0s0.3 0.8 0 1.1l-4.7 4.7 4.7 4.7z"/>
</svg>
