<?xml version="1.0" encoding="utf-8"?>
<!-- Generator: Adobe Illustrator 23.1.0, SVG Export Plug-In . SVG Version: 6.00 Build 0)  -->
<svg version="1.1" id="Layer_1" xmlns="http://www.w3.org/2000/svg" xmlns:xlink="http://www.w3.org/1999/xlink" x="0px" y="0px"
	 viewBox="0 0 24 24" style="enable-background:new 0 0 24 24;" xml:space="preserve">
<style type="text/css">
	.st0{fill:#FFFFFF;}
</style>
<g>
	<rect x="9.1" y="12" class="st0" width="1.2" height="5.4"/>
	<rect x="6.8" y="15.1" class="st0" width="1.2" height="2.3"/>
	<path class="st0" d="M22.4,0H1.5C0.7,0,0,0.7,0,1.5v21.1C0,23.3,0.7,24,1.5,24h21c0.8,0,1.5-0.7,1.5-1.5v-21
		C23.9,0.7,23.2,0,22.4,0z M9.7,8.6l1.9,1.9l4-4h-0.7V6.2h1.4v1.4h-0.4V6.9l-4.3,4.3l-1.9-2l-2.2,2.2l-0.3-0.3L9.7,8.6z M18,17.8H6
		v-0.4h0.4v-2.7h1.9v2.7h0.4v-5.8h1.9v5.8H11v-4.6h2v4.6h0.4V10h1.9v7.4h0.4V8.9h1.9v8.5H18V17.8z"/>
</g>
</svg>
