<?xml version="1.0" encoding="utf-8"?>
<!-- Generator: Adobe Illustrator 25.0.0, SVG Export Plug-In . SVG Version: 6.00 Build 0)  -->
<svg version="1.1" id="Layer_1" xmlns="http://www.w3.org/2000/svg" xmlns:xlink="http://www.w3.org/1999/xlink" x="0px" y="0px"
	 viewBox="0 0 24 24" style="enable-background:new 0 0 24 24;" xml:space="preserve">
<style type="text/css">
	.st0{fill:#FFFFFF;}
</style>
<g>
	<path class="st0" d="M12,12.6c-0.5,0-1,0.4-1,1c0,0.4,0.2,0.6,0.5,0.8V16c0,0.3,0.2,0.5,0.5,0.5s0.5-0.2,0.5-0.5v-1.6
		c0.3-0.2,0.5-0.5,0.5-0.8C13,13.1,12.5,12.6,12,12.6z"/>
	<path class="st0" d="M21,0H3.1C1.4,0,0,1.4,0,3.1v17.7C0,22.6,1.4,24,3.1,24h17.8c1.7,0,3.1-1.4,3.1-3.1V3.1C24.1,1.4,22.7,0,21,0z
		 M16.3,16.8c0,0.2-0.1,0.4-0.3,0.4c-1.3,0.5-2.7,0.8-4,0.8s-2.8-0.3-4-0.8c-0.2-0.1-0.3-0.3-0.3-0.4v-4.6c0-0.2,0.1-0.4,0.3-0.4
		c0.1-0.1,0.3-0.1,0.5-0.2c0,0,0,0,0.1,0v-5C8.5,4.6,10.1,3,12,3s3.5,1.6,3.5,3.5V8l-0.4,0.3l0.4,0.6v0.4c0,0.3-0.3,0.6-0.6,0.6
		s-0.6-0.3-0.6-0.6V6.6c0-1.3-1-2.3-2.3-2.3s-2.3,1-2.3,2.3v4.7l0,0c0.8-0.2,1.5-0.2,2.3-0.2s1.5,0.1,2.3,0.2c0,0,1.2,0.3,1.3,0.3
		c0.2,0.1,0.3,0.1,0.5,0.2c0.2,0.1,0.3,0.3,0.3,0.4L16.3,16.8L16.3,16.8z"/>
</g>
</svg>
