<?xml version="1.0" encoding="UTF-8"?>
<svg enable-background="new 0 0 42.7 24" version="1.1" viewBox="0 0 42.7 24" xmlns="http://www.w3.org/2000/svg">
 <style type="text/css">.st0{opacity:0.3;}
	.st1{fill:#414042;}
	.st2{fill:#D1D3D4;}
	.st3{fill:#22363F;}
	.st4{fill:#4E7387;}
	.st5{fill:#578CA3;}
	.st6{fill:#204856;}
	.st7{fill:#092830;}
	.st8{opacity:0.6;fill:#FFFFFF;enable-background:new    ;}
	.st9{fill:#BE1E2D;}
	.st10{fill:#939598;}
	.st11{opacity:0.3;fill:#939598;enable-background:new    ;}</style>
 <g id="Objects">
  <g class="st0">
   <rect class="st1" x="14" y="8.3" width="14.6" height="8.5"/>
   <path class="st2" d="m26.7 12.5c0 2-1.6 3.7-3.7 3.7s-3.7-1.6-3.7-3.7 1.7-3.7 3.7-3.7 3.7 1.7 3.7 3.7z"/>
   <rect class="st2" x="14" y="8.3" width="14.6" height="1.6"/>
   <rect class="st2" x="14" y="15.1" width="14.6" height="1.6"/>
   <path class="st3" d="m26.1 12.5c0 1.7-1.4 3.1-3.1 3.1s-3.1-1.4-3.1-3.1 1.4-3.1 3.1-3.1 3.1 1.4 3.1 3.1z"/>
   <path class="st4" d="m25.3 12.5c0 1.2-1 2.3-2.3 2.3s-2.3-1-2.3-2.3 1-2.3 2.3-2.3 2.3 1.1 2.3 2.3z"/>
   <path class="st5" d="m23 14.9c-1.3 0-2.4-1.1-2.4-2.4s1.1-2.4 2.4-2.4 2.4 1.1 2.4 2.4-1.1 2.4-2.4 2.4zm0-4.6c-1.2 0-2.1 1-2.1 2.1 0 1.2 1 2.1 2.1 2.1 1.2 0 2.1-1 2.1-2.1 0.1-1.1-0.9-2.1-2.1-2.1z"/>
   <path class="st6" d="m24.2 12.5c0 0.7-0.5 1.2-1.2 1.2s-1.2-0.6-1.2-1.2c0-0.7 0.5-1.2 1.2-1.2s1.2 0.5 1.2 1.2z"/>
   <path class="st7" d="m23.8 12.5c0 0.4-0.4 0.8-0.8 0.8s-0.8-0.4-0.8-0.8 0.4-0.8 0.8-0.8 0.8 0.4 0.8 0.8z"/>
   <path class="st2" d="m25.8 9c0 0.1-0.1 0.3-0.3 0.3h-4.8c-0.1 0-0.3-0.1-0.3-0.3v-1.9c0-0.2 0.1-0.3 0.3-0.3h4.8c0.1 0 0.3 0.1 0.3 0.3v1.9z"/>
   <path class="st8" d="m22.4 11.1c0 0.4-0.3 0.8-0.8 0.8s-0.8-0.3-0.8-0.8 0.3-0.8 0.8-0.8 0.8 0.3 0.8 0.8z"/>
   <path class="st8" d="m22.5 12c0 0.1-0.1 0.2-0.2 0.2s-0.2-0.1-0.2-0.2 0.1-0.2 0.2-0.2 0.2 0.1 0.2 0.2z"/>
   <path class="st4" d="m25.4 8.2c0 0.1-0.1 0.3-0.3 0.3h-2.3c-0.1 0-0.3-0.1-0.3-0.3v-0.8c0-0.2 0.1-0.3 0.3-0.3h2.3c0.1 0 0.3 0.1 0.3 0.3v0.8z"/>
   <path class="st3" d="m22.1 7.6c0 0.2-0.1 0.3-0.3 0.3h-0.5c-0.1 0-0.3-0.1-0.3-0.3v-0.1c0-0.2 0.1-0.3 0.3-0.3h0.5c0.1 0 0.3 0.1 0.3 0.3v0.1z"/>
   <path class="st9" d="m22 8.3c0 0.1-0.1 0.2-0.2 0.2s-0.2-0.1-0.2-0.2 0.1-0.2 0.2-0.2 0.2 0.1 0.2 0.2z"/>
   <rect class="st10" x="15.3" y="7.8" width="1.8" height=".5"/>
   <rect class="st11" x="27.5" y="8.3" width="1.2" height="8.4"/>
   <rect class="st11" x="14" y="8.3" width=".6" height="8.4"/>
  </g>
 </g>
</svg>
