<?xml version="1.0" encoding="UTF-8"?>
<svg enable-background="new 0 0 24 24" version="1.1" viewBox="0 0 24 24" xmlns="http://www.w3.org/2000/svg">
 <style type="text/css">.st0{fill:#5A5A5A;}</style>
 <path class="st0" d="m15.1 14.6h1.5c0.1 0 0.2-0.1 0.2-0.2v-1.5c0-0.1-0.1-0.2-0.2-0.2s-0.2 0.1-0.2 0.2v1.2h-1.2c-0.2 0-0.3 0.1-0.3 0.3 0 0.1 0.1 0.2 0.2 0.2z"/>
 <path class="st0" d="m13.9 14.5h0.2c0.1 0 0.2-0.1 0.2-0.2s-0.1-0.2-0.2-0.2h-0.2c-0.1 0-0.2 0.1-0.2 0.2s0.1 0.2 0.2 0.2z"/>
 <path class="st0" d="m19.9 15.3h-0.5v-5.9c0.3-0.1 0.3-0.4 0.3-0.7v-1.5c0-0.4-0.3-0.7-0.7-0.7h-2.9v-1.2h-1.5v1.2h-5.6v-1.2h-1.5v1.2h-2.7c-0.4 0-0.7 0.3-0.7 0.7v1.5c0 0.3 0.3 0.6 0.5 0.7v5.9h-0.5v1.5h6.9c-0.2 0.2-0.3 0.6-0.2 0.9 0.1 0.6 0.6 1 1.2 1s1.1-0.4 1.2-1c0.1-0.3 0-0.6-0.2-0.9h6.9v-1.5zm-7.9 2.6c-0.2 0-0.4-0.2-0.4-0.4s0.2-0.4 0.4-0.4 0.4 0.2 0.4 0.4c0 0.3-0.2 0.4-0.4 0.4zm5.8-2.6h-11.7v-5.9h11.7v5.9z"/>
 <path class="st0" d="m7.2 12.1c0 0.1 0.1 0.2 0.2 0.2s0.2-0.1 0.2-0.2v-1.2h1.2c0.2 0 0.2-0.1 0.2-0.2s-0.1-0.2-0.2-0.2h-1.5c-0.1 0-0.2 0.1-0.2 0.2h0.1v1.4z"/>
</svg>
