<?xml version="1.0" encoding="utf-8"?>
<!-- Generator: Adobe Illustrator 25.0.0, SVG Export Plug-In . SVG Version: 6.00 Build 0)  -->
<svg version="1.1"
	 id="svg6" xmlns:cc="http://creativecommons.org/ns#" xmlns:dc="http://purl.org/dc/elements/1.1/" xmlns:inkscape="http://www.inkscape.org/namespaces/inkscape" xmlns:rdf="http://www.w3.org/1999/02/22-rdf-syntax-ns#" xmlns:sodipodi="http://sodipodi.sourceforge.net/DTD/sodipodi-0.dtd" xmlns:svg="http://www.w3.org/2000/svg"
	 xmlns="http://www.w3.org/2000/svg" xmlns:xlink="http://www.w3.org/1999/xlink" x="0px" y="0px" viewBox="0 0 24 24"
	 style="enable-background:new 0 0 24 24;" xml:space="preserve">
<style type="text/css">
	.st0{fill:#FFFFFF;}
</style>
<sodipodi:namedview  bordercolor="#666666" borderopacity="1" gridtolerance="10" guidetolerance="10" id="namedview8" inkscape:current-layer="svg6" inkscape:cx="12" inkscape:cy="12" inkscape:document-rotation="0" inkscape:pagecheckerboard="true" inkscape:pageopacity="0" inkscape:pageshadow="2" inkscape:window-height="1027" inkscape:window-maximized="1" inkscape:window-width="1920" inkscape:window-x="-8" inkscape:window-y="22" inkscape:zoom="31.375" objecttolerance="10" pagecolor="#202020" showgrid="false">
	</sodipodi:namedview>
<path class="st0" d="M21,0H3.1C1.4,0,0,1.4,0,3.1v17.7C0,22.6,1.4,24,3.1,24h17.8c1.7,0,3.1-1.4,3.1-3.1V3.1C24.1,1.4,22.7,0,21,0z
	 M17.5,15.8c0.5,0.4,0.5,1.2,0,1.6c-0.4,0.5-1.2,0.5-1.6,0L12,13.7l-3.8,3.8C7.8,18,7,18,6.6,17.5c-0.5-0.4-0.5-1.2,0-1.6l3.8-3.8
	L6.5,8.2C6.1,7.7,6.1,7,6.5,6.5C6.8,6.3,7,6.2,7.3,6.2s0.6,0.1,0.8,0.3l3.8,3.8l3.8-3.8c0.4-0.5,1.2-0.5,1.6,0
	c0.5,0.4,0.5,1.2,0,1.6L13.7,12L17.5,15.8z"/>
</svg>
