<?xml version="1.0" encoding="UTF-8" standalone="no"?>
<svg
   xmlns:dc="http://purl.org/dc/elements/1.1/"
   xmlns:cc="http://creativecommons.org/ns#"
   xmlns:rdf="http://www.w3.org/1999/02/22-rdf-syntax-ns#"
   xmlns:svg="http://www.w3.org/2000/svg"
   xmlns="http://www.w3.org/2000/svg"
   xmlns:sodipodi="http://sodipodi.sourceforge.net/DTD/sodipodi-0.dtd"
   xmlns:inkscape="http://www.inkscape.org/namespaces/inkscape"
   inkscape:version="1.0 (4035a4fb49, 2020-05-01)"
   sodipodi:docname="clear.svg"
   id="svg6"
   viewBox="0 0 24 24"
   version="1.1"
   enable-background="new 0 0 24 24">
  <metadata
     id="metadata12">
    <rdf:RDF>
      <cc:Work
         rdf:about="">
        <dc:format>image/svg+xml</dc:format>
        <dc:type
           rdf:resource="http://purl.org/dc/dcmitype/StillImage" />
        <dc:title></dc:title>
      </cc:Work>
    </rdf:RDF>
  </metadata>
  <defs
     id="defs10" />
  <sodipodi:namedview
     inkscape:current-layer="svg6"
     inkscape:window-maximized="1"
     inkscape:window-y="22"
     inkscape:window-x="-8"
     inkscape:cy="12"
     inkscape:cx="12"
     inkscape:zoom="31.375"
     inkscape:pagecheckerboard="true"
     showgrid="false"
     id="namedview8"
     inkscape:window-height="1027"
     inkscape:window-width="1920"
     inkscape:pageshadow="2"
     inkscape:pageopacity="0"
     guidetolerance="10"
     gridtolerance="10"
     objecttolerance="10"
     borderopacity="1"
     bordercolor="#666666"
     pagecolor="#202020"
     inkscape:document-rotation="0" />
  <style
     id="style2"
     type="text/css">.st0{fill:#FFFFFF;}</style>
  <path
     d="M 11.99995,5e-7 A 12.000018,12.000018 0 0 0 0,11.99995 12.000018,12.000018 0 0 0 11.99995,24 12.000018,12.000018 0 0 0 24,11.99995 12.000018,12.000018 0 0 0 11.99995,5e-7 Z m -4.65,6.187532 c 0.30001,0 0.60002,0.112426 0.82501,0.337417 l 3.82499,3.8249905 3.82499,-3.8249905 c 0.44998,-0.449983 1.20003,-0.449983 1.65001,0 0.44998,0.449982 0.44998,1.200026 0,1.650008 l -3.82499,3.8249925 3.82499,3.824989 c 0.44998,0.44998 0.44998,1.19997 0,1.65001 -0.44998,0.44998 -1.20003,0.44998 -1.65001,0 l -3.82499,-3.82499 -3.82499,3.82499 c -0.44998,0.44998 -1.20003,0.44998 -1.65001,0 -0.44998,-0.44998 -0.44998,-1.20003 0,-1.65001 L 10.34994,11.99995 6.52495,8.1749575 c -0.44998,-0.449982 -0.44998,-1.200026 0,-1.650008 0.22499,-0.224991 0.525,-0.337417 0.825,-0.337417 z"
     style="fill:#ffffff;stroke-width:0.0527343"
     id="circle2" />
</svg>
