<?xml version="1.0" encoding="utf-8"?>
<!-- Generator: Adobe Illustrator 25.0.0, SVG Export Plug-In . SVG Version: 6.00 Build 0)  -->
<svg version="1.1" id="Layer_1" xmlns="http://www.w3.org/2000/svg" xmlns:xlink="http://www.w3.org/1999/xlink" x="0px" y="0px"
	 viewBox="0 0 24 24" style="enable-background:new 0 0 24 24;" xml:space="preserve">
<style type="text/css">
	.st0{fill:#FFFFFF;}
</style>
<g>
	<path class="st0" d="M9.4,9.1C9.3,9.3,9.2,9.5,9.2,9.8s0.1,0.5,0.2,0.7c0.1,0.2,0.3,0.2,0.4,0.2c0.2,0,0.3-0.1,0.4-0.2
		c0.1-0.2,0.2-0.4,0.2-0.7s-0.1-0.5-0.2-0.7C10.1,8.9,10,8.9,9.8,8.9S9.5,8.9,9.4,9.1z"/>
	<path class="st0" d="M5.9,8c0.2,0,0.3-0.1,0.4-0.2c0.1-0.2,0.2-0.4,0.2-0.7c0-0.3-0.1-0.5-0.2-0.7C6.2,6.2,6.1,6.1,5.9,6.1
		S5.6,6.2,5.5,6.3C5.3,6.5,5.3,6.8,5.3,7.1c0,0.3,0.1,0.5,0.2,0.7C5.6,7.9,5.7,8,5.9,8z"/>
	<path class="st0" d="M21,0H3.1C1.4,0,0,1.4,0,3.1v17.7C0,22.6,1.4,24,3.1,24h17.8c1.7,0,3.1-1.4,3.1-3.1V3.1C24.1,1.4,22.7,0,21,0z
		 M16.5,9c0-0.8,0.7-1.5,1.5-1.5s1.5,0.7,1.5,1.5v8c0,0.8-0.7,1.5-1.5,1.5s-1.5-0.7-1.5-1.5V9z M12.5,12c0-0.8,0.7-1.5,1.5-1.5
		s1.5,0.7,1.5,1.5v5c0,0.8-0.7,1.5-1.5,1.5s-1.5-0.7-1.5-1.5V12z M11.2,9.8c0,0.5-0.1,0.9-0.4,1.2c-0.3,0.3-0.6,0.4-1,0.4
		c-0.3,0-0.5-0.1-0.7-0.2c-0.2-0.1-0.4-0.3-0.5-0.6c-0.1-0.2-0.2-0.5-0.2-0.8S8.5,9.2,8.6,9c0.1-0.2,0.3-0.4,0.5-0.6
		c0.2-0.1,0.5-0.2,0.7-0.2c0.4,0,0.8,0.1,1,0.4C11.1,8.9,11.2,9.3,11.2,9.8z M11.5,15.9v1c0,0.8-0.7,1.5-1.5,1.5s-1.5-0.7-1.5-1.5
		v-1c0-0.8,0.7-1.5,1.5-1.5S11.5,15.1,11.5,15.9z M10.3,5.5l-3.9,5.8h-1l3.9-5.8H10.3z M7.5,17.4c0,0.6-0.5,1.1-1.1,1.1H5.6
		c-0.6,0-1.1-0.5-1.1-1.1s0.5-1.1,1.1-1.1h0.8C7,16.3,7.5,16.8,7.5,17.4z M4.9,5.9c0.3-0.3,0.6-0.4,1-0.4s0.8,0.1,1,0.4
		c0.3,0.3,0.4,0.7,0.4,1.2S7.2,8,6.9,8.3s-0.6,0.4-1,0.4s-0.8-0.1-1-0.4C4.6,7.9,4.5,7.5,4.5,7.1C4.5,6.6,4.6,6.2,4.9,5.9z
		 M20.2,19.2H3.8c-0.1,0-0.2-0.1-0.2-0.2s0.1-0.2,0.2-0.2h16.4c0.1,0,0.2,0.1,0.2,0.2S20.3,19.2,20.2,19.2z"/>
</g>
</svg>
