<?xml version="1.0" encoding="utf-8"?>
<!-- Generator: Adobe Illustrator 23.1.0, SVG Export Plug-In . SVG Version: 6.00 Build 0)  -->
<svg version="1.1" id="Layer_1" xmlns="http://www.w3.org/2000/svg" xmlns:xlink="http://www.w3.org/1999/xlink" x="0px" y="0px"
	 viewBox="0 0 24 24" style="enable-background:new 0 0 24 24;" xml:space="preserve">
<style type="text/css">
	.st0{fill:#FFFFFF;}
</style>
<g>
	<path class="st0" d="M9.4,9.1C9.3,9.3,9.2,9.5,9.2,9.8c0,0.3,0.1,0.5,0.2,0.7c0.1,0.2,0.3,0.2,0.4,0.2c0.2,0,0.3-0.1,0.4-0.2
		c0.1-0.2,0.2-0.4,0.2-0.7c0-0.3-0.1-0.5-0.2-0.7C10.1,8.9,10,8.9,9.8,8.9C9.6,8.9,9.5,8.9,9.4,9.1z"/>
	<path class="st0" d="M5.9,8c0.2,0,0.3-0.1,0.4-0.2c0.1-0.2,0.2-0.4,0.2-0.7c0-0.3-0.1-0.5-0.2-0.7C6.2,6.2,6.1,6.1,5.9,6.1
		c-0.2,0-0.3,0.1-0.4,0.2C5.3,6.5,5.3,6.8,5.3,7.1c0,0.3,0.1,0.5,0.2,0.7C5.6,7.9,5.7,8,5.9,8z"/>
	<path class="st0" d="M20.9,0H3.1C1.4,0,0,1.4,0,3.1v17.7C0,22.6,1.4,24,3.1,24h17.7c1.7,0,3.1-1.4,3.1-3.1V3.1
		C24,1.4,22.6,0,20.9,0z M16.5,9c0-0.8,0.7-1.5,1.5-1.5c0.8,0,1.5,0.7,1.5,1.5v8c0,0.8-0.7,1.5-1.5,1.5c-0.8,0-1.5-0.7-1.5-1.5V9z
		 M12.5,12c0-0.8,0.7-1.5,1.5-1.5c0.8,0,1.5,0.7,1.5,1.5v5c0,0.8-0.7,1.5-1.5,1.5c-0.8,0-1.5-0.7-1.5-1.5V12z M11.2,9.8
		c0,0.5-0.1,0.9-0.4,1.2c-0.3,0.3-0.6,0.4-1,0.4c-0.3,0-0.5-0.1-0.7-0.2c-0.2-0.1-0.4-0.3-0.5-0.6c-0.1-0.2-0.2-0.5-0.2-0.8
		c0-0.3,0.1-0.6,0.2-0.8c0.1-0.2,0.3-0.4,0.5-0.6c0.2-0.1,0.5-0.2,0.7-0.2c0.4,0,0.8,0.1,1,0.4C11.1,8.9,11.2,9.3,11.2,9.8z
		 M11.5,15.9v1c0,0.8-0.7,1.5-1.5,1.5c-0.8,0-1.5-0.7-1.5-1.5v-1c0-0.8,0.7-1.5,1.5-1.5C10.8,14.4,11.5,15.1,11.5,15.9z M10.3,5.5
		l-3.9,5.8h-1l3.9-5.8H10.3z M7.5,17.4c0,0.6-0.5,1.1-1.1,1.1H5.6c-0.6,0-1.1-0.5-1.1-1.1s0.5-1.1,1.1-1.1h0.8
		C7,16.3,7.5,16.8,7.5,17.4z M4.9,5.9c0.3-0.3,0.6-0.4,1-0.4c0.4,0,0.8,0.1,1,0.4c0.3,0.3,0.4,0.7,0.4,1.2c0,0.5-0.1,0.9-0.4,1.2
		c-0.3,0.3-0.6,0.4-1,0.4c-0.4,0-0.8-0.1-1-0.4C4.6,7.9,4.5,7.5,4.5,7.1C4.5,6.6,4.6,6.2,4.9,5.9z M20.2,19.2H3.8
		c-0.1,0-0.2-0.1-0.2-0.2c0-0.1,0.1-0.2,0.2-0.2h16.4c0.1,0,0.2,0.1,0.2,0.2C20.4,19.1,20.3,19.2,20.2,19.2z"/>
</g>
</svg>
