<?xml version="1.0" encoding="utf-8"?>
<!-- Generator: Adobe Illustrator 25.0.0, SVG Export Plug-In . SVG Version: 6.00 Build 0)  -->
<svg version="1.1" id="Layer_1" xmlns="http://www.w3.org/2000/svg" xmlns:xlink="http://www.w3.org/1999/xlink" x="0px" y="0px"
	 viewBox="0 0 24 24" style="enable-background:new 0 0 24 24;" xml:space="preserve">
<style type="text/css">
	.st0{fill:#FFFFFF;}
</style>
<g>
	<path class="st0" d="M10.4,6.3c-0.2,0-0.3,0.1-0.4,0.2c0,0-0.1,0.1-0.1,0.2S9.9,6.9,10,7c0.1,0.1,0.2,0.1,0.3,0.2L10.4,6.3
		L10.4,6.3z"/>
	<path class="st0" d="M21,0H3.1C1.4,0,0,1.4,0,3.1v17.7C0,22.6,1.4,24,3.1,24h17.8c1.7,0,3.1-1.4,3.1-3.1V3.1C24.1,1.4,22.7,0,21,0z
		 M16.5,9c0-0.8,0.7-1.5,1.5-1.5s1.5,0.7,1.5,1.5v8c0,0.8-0.7,1.5-1.5,1.5s-1.5-0.7-1.5-1.5V9z M14,10.5c0.8,0,1.5,0.7,1.5,1.5v5
		c0,0.8-0.7,1.5-1.5,1.5s-1.5-0.7-1.5-1.5v-5C12.5,11.1,13.1,10.5,14,10.5z M9.6,7.8C9.4,7.7,9.2,7.6,9.1,7.4C9,7.3,8.9,7,8.9,6.8
		c0-0.3,0.1-0.6,0.4-0.9c0.3-0.2,0.6-0.4,1.1-0.5V4.7H11v0.7c0.5,0,0.9,0.2,1.3,0.4L12,6.6c-0.3-0.2-0.6-0.3-1-0.3v1.1
		c0.3,0.1,0.5,0.1,0.7,0.2s0.4,0.2,0.5,0.4s0.2,0.4,0.2,0.7S12.3,9.3,12,9.6c-0.3,0.2-0.6,0.4-1.1,0.5v0.7h-0.6V9.9
		c-0.3,0-0.6-0.1-0.9-0.2C9.2,9.7,9,9.6,8.8,9.4l0.3-0.8C9.3,8.8,9.5,8.9,9.7,9s0.4,0.1,0.7,0.2v-1C10.1,8,9.8,7.9,9.6,7.8z
		 M8.5,15.9c0-0.8,0.7-1.5,1.5-1.5s1.5,0.7,1.5,1.5v1c0,0.8-0.7,1.5-1.5,1.5s-1.5-0.7-1.5-1.5V15.9z M4.5,5.5h1.9
		c0.4,0,0.7,0.1,1,0.2C7.7,5.8,8,6,8.1,6.2C8.3,6.4,8.3,6.7,8.3,7s0,0.7-0.2,0.9C8,8.1,7.7,8.3,7.5,8.5l1,1.4H7.3L6.5,8.6H6.4H5.6
		v1.2h-1L4.5,5.5L4.5,5.5z M5.6,16.3h0.8c0.6,0,1.1,0.5,1.1,1.1S7,18.5,6.4,18.5H5.6c-0.6,0-1.1-0.5-1.1-1.1S5,16.3,5.6,16.3z
		 M20.2,19.2H3.8c-0.1,0-0.2-0.1-0.2-0.2s0.1-0.2,0.2-0.2h16.4c0.1,0,0.2,0.1,0.2,0.2S20.3,19.2,20.2,19.2z"/>
	<path class="st0" d="M7.1,7.6C7.3,7.5,7.3,7.3,7.3,7c0-0.2-0.1-0.4-0.2-0.6c-0.2,0-0.4-0.1-0.7-0.1H5.6v1.5h0.8
		C6.7,7.8,6.9,7.8,7.1,7.6z"/>
	<path class="st0" d="M11.5,8.7c0-0.1,0-0.2-0.1-0.3s-0.2-0.1-0.3-0.2v0.9c0.2,0,0.3-0.1,0.3-0.2C11.4,8.9,11.5,8.8,11.5,8.7z"/>
</g>
</svg>
