<?xml version="1.0" encoding="utf-8"?>
<!-- Generator: Adobe Illustrator 25.0.0, SVG Export Plug-In . SVG Version: 6.00 Build 0)  -->
<svg version="1.1" id="Layer_1" xmlns="http://www.w3.org/2000/svg" xmlns:xlink="http://www.w3.org/1999/xlink" x="0px" y="0px"
	 viewBox="0 0 24 24" style="enable-background:new 0 0 24 24;" xml:space="preserve">
<style type="text/css">
	.st0{fill:#FFFFFF;}
</style>
<path class="st0" d="M22.4,0H1.5C0.7,0,0,0.7,0,1.5v21.1C0,23.3,0.7,24,1.5,24h21c0.8,0,1.5-0.7,1.5-1.5v-21C23.9,0.7,23.2,0,22.4,0
	z M15.9,14.3h-0.1c0,2.2-1.8,3.9-3.9,3.9s-4-1.9-4-3.9V8.9c0-0.4,0.3-0.7,0.7-0.7s0.6,0.3,0.6,0.7v5.3c0,1.4,1.1,2.6,2.6,2.6
	s2.6-1.1,2.6-2.6V8.7c0-0.9-0.7-1.6-1.6-1.6s-1.6,0.7-1.6,1.6v5c0,0.3,0.3,0.6,0.6,0.6s0.6-0.3,0.6-0.6V8.9c0-0.4,0.3-0.7,0.7-0.7
	s0.7,0.3,0.7,0.7v4.8c0,1.1-0.9,1.9-1.9,1.9s-1.9-0.9-1.9-1.9v-5c0-1.6,1.3-2.9,2.9-2.9s2.9,1.3,2.9,2.9v5.6H15.9z"/>
</svg>
