<?xml version="1.0" encoding="utf-8"?>
<!-- Generator: Adobe Illustrator 25.0.0, SVG Export Plug-In . SVG Version: 6.00 Build 0)  -->
<svg version="1.1" id="Layer_1" xmlns="http://www.w3.org/2000/svg" xmlns:xlink="http://www.w3.org/1999/xlink" x="0px" y="0px"
	 viewBox="0 0 24 24" style="enable-background:new 0 0 24 24;" xml:space="preserve">
<style type="text/css">
	.st0{fill:#FFFFFF;}
</style>
<g>
	<path class="st0" d="M9,16.8C9,17,9.1,17,9.3,17h5.4c0.2,0,0.3-0.1,0.3-0.3v-6.2H9V16.8z M13.5,12.5c0-0.2,0.2-0.3,0.3-0.3
		c0.2,0,0.3,0.2,0.3,0.3v3.8c0,0.2-0.2,0.3-0.3,0.3c-0.2,0-0.3-0.2-0.3-0.3V12.5z M11.7,12.5c0-0.2,0.2-0.3,0.3-0.3s0.3,0.2,0.3,0.3
		v3.8c0,0.2-0.2,0.3-0.3,0.3s-0.3-0.2-0.3-0.3V12.5z M9.8,12.5c0-0.2,0.2-0.3,0.3-0.3s0.3,0.2,0.3,0.3v3.8c0,0.2-0.2,0.3-0.3,0.3
		s-0.3-0.2-0.3-0.3V12.5z"/>
	<path class="st0" d="M15.6,8.4H8.4c-0.2,0-0.3,0.1-0.3,0.3v0.1c0,0.2,0.1,0.3,0.3,0.3h7.2c0.2,0,0.3-0.1,0.3-0.3V8.7
		C15.9,8.5,15.8,8.4,15.6,8.4z"/>
	<path class="st0" d="M22.4,0H1.5C0.7,0,0,0.7,0,1.5v21.1C0,23.3,0.7,24,1.5,24h21c0.8,0,1.5-0.7,1.5-1.5v-21
		C23.9,0.7,23.2,0,22.4,0z M16.5,10.4v6.5c0,1-0.8,1.9-1.9,1.9H9.3c-1,0-1.9-0.8-1.9-1.9v-6.5c-0.6-0.4-0.9-1-0.9-1.6V8.7
		c0-1,0.8-1.9,1.9-1.9H10c0.3-0.9,1.1-1.5,2-1.5c0.9,0,1.8,0.6,2,1.5h1.6c1.1,0,1.9,0.8,1.9,2C17.4,9.5,17.1,10.1,16.5,10.4z"/>
</g>
</svg>
