<?xml version="1.0" encoding="utf-8"?>
<!-- Generator: Adobe Illustrator 25.0.0, SVG Export Plug-In . SVG Version: 6.00 Build 0)  -->
<svg version="1.1" id="Layer_1" xmlns="http://www.w3.org/2000/svg" xmlns:xlink="http://www.w3.org/1999/xlink" x="0px" y="0px"
	 viewBox="0 0 24 24" style="enable-background:new 0 0 24 24;" xml:space="preserve">
<style type="text/css">
	.st0{fill:#FFFFFF;}
</style>
<path class="st0" d="M22.4,0H1.5C0.7,0,0,0.7,0,1.5v21.1C0,23.3,0.7,24,1.5,24h21c0.8,0,1.5-0.7,1.5-1.5v-21C23.9,0.7,23.2,0,22.4,0
	z M17.8,16.5c0,1.1-0.9,1.9-1.9,1.9H7.4c-1.1,0-1.9-0.9-1.9-1.9V8.7c0-1.1,0.9-1.9,1.9-1.9h2.7c0.4,0,0.7,0.3,0.7,0.7
	c0,0.4-0.3,0.7-0.7,0.7H7.4c-0.3,0-0.5,0.2-0.5,0.5v7.8c0,0.3,0.2,0.5,0.5,0.5h8.4c0.3,0,0.5-0.2,0.5-0.5v-2.7
	c0-0.4,0.3-0.7,0.7-0.7s0.7,0.3,0.7,0.7C17.8,13.8,17.8,16.5,17.8,16.5z M17.8,9l-5.4,5.4c-0.1,0.1-0.2,0.2-0.3,0.2l-2.5,0.7
	c-0.1,0-0.1,0-0.2,0c-0.2,0-0.4-0.1-0.5-0.2c-0.2-0.2-0.3-0.5-0.2-0.7l0.7-2.5c0-0.1,0.1-0.2,0.2-0.3l5.4-5.4c0.7-0.7,1.9-0.7,2.5,0
	L18,6.6C18.5,7.2,18.5,8.3,17.8,9z"/>
</svg>
