<?xml version="1.0" encoding="utf-8"?>
<!-- Generator: Adobe Illustrator 25.0.0, SVG Export Plug-In . SVG Version: 6.00 Build 0)  -->
<svg version="1.1" id="Layer_1" xmlns="http://www.w3.org/2000/svg" xmlns:xlink="http://www.w3.org/1999/xlink" x="0px" y="0px"
	 viewBox="0 0 24 24" style="enable-background:new 0 0 24 24;" xml:space="preserve">
<style type="text/css">
	.st0{fill:#FFFFFF;}
</style>
<g>
	<path class="st0" d="M12.8,9.3h1.1c0.2,0,0.4,0.2,0.4,0.4s-0.2,0.4-0.4,0.4h-1.1v0.8h1.1c0.2,0,0.4,0.2,0.4,0.4s-0.2,0.4-0.4,0.4
		h-1.1v0.8h1.1c0.2,0,0.4,0.2,0.4,0.4s-0.2,0.4-0.4,0.4h-1.1v0.8h1.1c0.2,0,0.4,0.2,0.4,0.4s-0.2,0.4-0.4,0.4h-1.1v0.8h4.5V8.5h-4.5
		C12.8,8.5,12.8,9.3,12.8,9.3z M15.4,9.3h0.8c0.2,0,0.4,0.2,0.4,0.4s-0.2,0.4-0.4,0.4h-0.8c-0.2,0-0.4-0.2-0.4-0.4
		C15,9.4,15.2,9.3,15.4,9.3z M15.4,10.8h0.8c0.2,0,0.4,0.2,0.4,0.4s-0.2,0.4-0.4,0.4h-0.8c-0.2,0-0.4-0.2-0.4-0.4
		C15,10.9,15.2,10.8,15.4,10.8z M15.4,12.3h0.8c0.2,0,0.4,0.2,0.4,0.4s-0.2,0.4-0.4,0.4h-0.8c-0.2,0-0.4-0.2-0.4-0.4
		C15,12.4,15.2,12.3,15.4,12.3z M15.4,13.8h0.8c0.2,0,0.4,0.2,0.4,0.4s-0.2,0.4-0.4,0.4h-0.8c-0.2,0-0.4-0.2-0.4-0.4
		C15,13.9,15.2,13.8,15.4,13.8z"/>
	<path class="st0" d="M22.5,0H1.5C0.7,0,0.1,0.7,0.1,1.5v21.1c0,0.7,0.7,1.4,1.5,1.4h21c0.8,0,1.5-0.7,1.5-1.5v-21
		C24,0.7,23.3,0,22.5,0z M18,15.7c0,0.2-0.2,0.4-0.4,0.4h-4.9v1.1c0,0.1,0,0.2-0.1,0.3c-0.1,0.1-0.2,0.1-0.2,0.1h-0.1l-6-1.1
		c-0.2,0-0.3-0.2-0.3-0.4V7.8c0-0.2,0.1-0.3,0.3-0.4l6-1.1c0.1,0,0.2,0,0.3,0.1s0.1,0.2,0.1,0.3v1.1h4.9c0.2,0,0.4,0.1,0.4,0.4V15.7
		z"/>
	<path class="st0" d="M11.3,13.2L10,11.8l1.2-1.5c0.1-0.2,0.1-0.4-0.1-0.5c-0.2-0.1-0.4-0.1-0.5,0.1l-1.1,1.4l-0.9-1.1
		c-0.1-0.2-0.4-0.2-0.5,0c-0.2,0.1-0.2,0.4,0,0.5l1,1.2l-1,1.3C8,13.4,8,13.6,8.2,13.7c0.1,0.1,0.1,0.1,0.2,0.1s0.2,0,0.3-0.1l1-1.2
		l1.1,1.2c0.1,0.1,0.2,0.1,0.3,0.1s0.2,0,0.2-0.1C11.5,13.6,11.5,13.3,11.3,13.2z"/>
</g>
</svg>
