<?xml version="1.0" encoding="utf-8"?>
<!-- Generator: Adobe Illustrator 25.0.0, SVG Export Plug-In . SVG Version: 6.00 Build 0)  -->
<svg version="1.1" id="Layer_1" xmlns="http://www.w3.org/2000/svg" xmlns:xlink="http://www.w3.org/1999/xlink" x="0px" y="0px"
	 viewBox="0 0 24 24" style="enable-background:new 0 0 24 24;" xml:space="preserve">
<style type="text/css">
	.st0{fill:#FFFFFF;}
</style>
<g>
	<path class="st0" d="M12.1,17.3C11.9,17.3,11.9,17.3,12.1,17.3h-0.2c-0.1,0-0.2,0.1-0.2,0.3c0,0.1,0.1,0.2,0.2,0.2
		c0.1,0,0.2-0.1,0.2-0.2C12.3,17.4,12.1,17.3,12.1,17.3z"/>
	<path class="st0" d="M6,15.3h11.7V9.4H6V15.3z M15.1,14.1h1.2v-1.2c0-0.1,0.1-0.2,0.2-0.2c0.1,0,0.2,0.1,0.2,0.2v1.5
		c0,0.1-0.1,0.2-0.2,0.2h-1.5c-0.1,0-0.2-0.1-0.2-0.2C14.8,14.2,14.9,14.1,15.1,14.1z M13.8,14.1H14c0.1,0,0.2,0.1,0.2,0.2
		c0,0.1-0.1,0.2-0.2,0.2h-0.2c-0.1,0-0.2-0.1-0.2-0.2C13.6,14.2,13.8,14.1,13.8,14.1z M7.3,10.5h1.5c0.1,0,0.2,0.1,0.2,0.2
		c0,0.1,0,0.2-0.2,0.2H7.5v1.2c0,0.1-0.1,0.2-0.2,0.2s-0.2-0.1-0.2-0.2v-1.4H7C7,10.6,7.1,10.5,7.3,10.5z"/>
	<path class="st0" d="M22.4,0H1.5C0.7,0,0,0.7,0,1.5v21.1C0,23.3,0.7,24,1.5,24h21c0.8,0,1.5-0.7,1.5-1.5v-21
		C23.9,0.7,23.2,0,22.4,0z M19.8,15.3v1.5h-6.9c0.2,0.3,0.3,0.6,0.2,0.9c-0.1,0.6-0.6,1-1.2,1c-0.6,0-1.1-0.4-1.2-1
		c-0.1-0.3,0-0.7,0.2-0.9H4v-1.5h0.5V9.4C4.3,9.3,4,9,4,8.7V7.2c0-0.4,0.3-0.7,0.7-0.7h2.7V5.3h1.5v1.2h5.6V5.3H16v1.2H19
		c0.4,0,0.7,0.3,0.7,0.7v1.5h0.2c0,0.3-0.2,0.6-0.5,0.7v5.9C19.4,15.3,19.8,15.3,19.8,15.3z"/>
</g>
</svg>
