<?xml version="1.0" encoding="utf-8"?>
<!-- Generator: Adobe Illustrator 23.1.0, SVG Export Plug-In . SVG Version: 6.00 Build 0)  -->
<svg version="1.1" id="Layer_1" xmlns="http://www.w3.org/2000/svg" xmlns:xlink="http://www.w3.org/1999/xlink" x="0px" y="0px"
	 viewBox="0 0 24 24" style="enable-background:new 0 0 24 24;" xml:space="preserve">
<style type="text/css">
	.st0{fill:#FFFFFF;}
</style>
<g>
	<path class="st0" d="M15.8,15.1H8.2c-0.2,0-0.4,0.2-0.4,0.4s0.2,0.4,0.4,0.4h7.6c0.2,0,0.4-0.2,0.4-0.4S16,15.1,15.8,15.1z"/>
	<path class="st0" d="M15.8,11.7H8.2c-0.2,0-0.4,0.2-0.4,0.4c0,0.2,0.2,0.4,0.4,0.4h7.6c0.2,0,0.4-0.2,0.4-0.4
		C16.2,11.9,16,11.7,15.8,11.7z"/>
	<path class="st0" d="M15.8,13.4H8.2c-0.2,0-0.4,0.2-0.4,0.4c0,0.2,0.2,0.4,0.4,0.4h7.6c0.2,0,0.4-0.2,0.4-0.4S16,13.4,15.8,13.4z"
		/>
	<path class="st0" d="M22.4,0H1.5C0.7,0,0,0.7,0,1.5v21.1C0,23.3,0.7,24,1.5,24h21c0.8,0,1.5-0.7,1.5-1.5v-21
		C23.9,0.7,23.2,0,22.4,0z M17.9,16.9c0,0.5-0.4,1-1,1H7.1c-0.5,0-1-0.4-1-1V7.1c0-0.5,0.4-1,1-1h7.2c0,0.1,0,0.3,0,0.4l0,0.4
		c0.1,1.5,1.3,2.7,2.8,2.8c0.1,0,0.2,0,0.3,0c0,0,0.1,0,0.1,0c0.1,0,0.3,0,0.4,0V16.9z M17.3,8.9c-1.2,0-2.3-1-2.3-2.3
		c0-1.2,1-2.3,2.3-2.3c1.2,0,2.3,1,2.3,2.3C19.6,7.9,18.6,8.9,17.3,8.9z"/>
	<path class="st0" d="M8.2,9.2h5.3C13.8,9.2,14,9,14,8.8c0-0.2-0.2-0.4-0.4-0.4H8.2C8,8.3,7.8,8.5,7.8,8.8C7.8,9,8,9.2,8.2,9.2z"/>
	<path class="st0" d="M15.8,10H8.2c-0.2,0-0.4,0.2-0.4,0.4s0.2,0.4,0.4,0.4h7.6c0.2,0,0.4-0.2,0.4-0.4S16,10,15.8,10z"/>
</g>
</svg>
