<?xml version="1.0" encoding="utf-8"?>
<!-- Generator: Adobe Illustrator 25.0.0, SVG Export Plug-In . SVG Version: 6.00 Build 0)  -->
<svg version="1.1" id="Layer_1" xmlns="http://www.w3.org/2000/svg" xmlns:xlink="http://www.w3.org/1999/xlink" x="0px" y="0px"
	 viewBox="0 0 24 24" style="enable-background:new 0 0 24 24;" xml:space="preserve">
<style type="text/css">
	.st0{fill:#FFFFFF;}
</style>
<path class="st0" d="M22.4,0H1.5C0.7,0,0,0.7,0,1.5v21.1C0,23.3,0.7,24,1.5,24h21c0.8,0,1.5-0.7,1.5-1.5v-21C23.9,0.7,23.2,0,22.4,0
	z M11.9,18.7c-1.8,0-3.5-0.8-4.7-2l1.1-1.1c0.9,0.9,2.2,1.5,3.7,1.5c2.9,0,5.2-2.3,5.2-5.2s-2.4-5.1-5.3-5.1S6.8,9.1,6.8,12h2.2
	l-3,3v-0.1L3,12h2.2c0-3.7,3-6.7,6.7-6.7s6.7,3,6.7,6.7S15.6,18.7,11.9,18.7z M14.8,13.9l0.1,0.1c0,0.1,0,0.1,0,0.2
	c0,0.1-0.1,0.1-0.2,0.1h-0.1l-2.9-1.7c-0.1,0-0.1-0.1-0.1-0.2V9c0-0.1,0.1-0.2,0.2-0.2s0.2,0.1,0.2,0.2v3.2L14.8,13.9z"/>
</svg>
