<?xml version="1.0" encoding="UTF-8"?>
<svg enable-background="new 0 0 24 24" version="1.1" viewBox="0 0 24 24" xmlns="http://www.w3.org/2000/svg">
 <style type="text/css">.st0{fill:#5A5A5A;}</style>
 <path class="st0" d="m16.5 14.6c0 2.5-2 4.4-4.4 4.4s-4.4-2-4.4-4.4v-6c0-0.5 0.3-0.8 0.8-0.8s0.7 0.3 0.7 0.8v6c0 1.6 1.2 3 3 3s3-1.2 3-3v-6.3c0-1-0.8-1.8-1.8-1.8s-1.9 0.8-1.9 1.8v5.7c0 0.3 0.4 0.7 0.7 0.7 0.4 0 0.7-0.4 0.7-0.7v-5.4c0-0.5 0.4-0.8 0.8-0.8s0.8 0.3 0.8 0.8v5.4c0 1.2-1.1 2.2-2.2 2.2s-2.2-1.1-2.2-2.2v-5.7c0-1.8 1.5-3.3 3.3-3.3 1.9 0 3.3 1.5 3.3 3.3v6.2h-0.2z"/>
</svg>
