<?xml version="1.0" encoding="UTF-8"?>
<svg width="24" height="24" version="1.1" viewBox="0 0 24 24" xmlns="http://www.w3.org/2000/svg">
 <style type="text/css">.st0{fill:#FFFFFF;}</style>
 <path d="m11.57 0.023438c-1.8362 0.26309-3.4476 2.1744-4.457 5.0039 1.4658 0.32752 2.9591 0.50587 4.457 0.52734v-5.5312zm0.85938 0v5.5312c1.498-0.021476 2.9913-0.19983 4.457-0.52734-1.0148-2.8241-2.6208-4.7408-4.457-5.0039zm-3.4141 0.34961c-0.032215 0.010738-0.071301 0.016606-0.10352 0.027344-0.091275 0.026846-0.18167 0.052742-0.26758 0.074219l-0.32227 0.097656c-0.091275 0.032215-0.18363 0.057629-0.26953 0.089844-0.10738 0.037584-0.20853 0.075698-0.31055 0.11328-0.091275 0.032215-0.1763 0.069838-0.26758 0.10742l-0.30664 0.12891c-0.085906 0.037584-0.17777 0.081557-0.26367 0.11914-0.096644 0.048322-0.19828 0.096209-0.29492 0.14453-0.085906 0.042953-0.17191 0.091813-0.25781 0.13477-0.096644 0.053691-0.19388 0.10061-0.28516 0.1543-0.085906 0.048322-0.17142 0.098162-0.25195 0.14648-0.091275 0.053691-0.18802 0.11281-0.2793 0.17188-0.080536 0.053691-0.16556 0.10647-0.24609 0.16016-0.091275 0.05906-0.17826 0.12307-0.26953 0.1875-0.080536 0.05906-0.16116 0.11281-0.23633 0.17188-0.085906 0.064429-0.17191 0.13528-0.25781 0.20508-0.075167 0.05906-0.15481 0.12258-0.22461 0.18164-0.085906 0.069798-0.16605 0.14505-0.25195 0.21484-0.075167 0.064429-0.14554 0.12942-0.2207 0.19922-0.080536 0.075167-0.16165 0.1553-0.24219 0.23047-0.069798 0.069798-0.13919 0.13333-0.20898 0.20312-0.010738 0.010738-0.026371 0.026861-0.037109 0.042969 0.93422 0.48322 1.9227 0.86436 2.9375 1.1328 0.52617-1.6805 1.4658-3.2099 2.7383-4.4395zm5.9688 0c1.2671 1.2349 2.2126 2.7653 2.7441 4.4512 1.0148-0.26846 2.0033-0.64959 2.9375-1.1328l-0.03711-0.037109c-0.069802-0.069798-0.14114-0.14065-0.21094-0.20508-0.080536-0.080537-0.1597-0.15579-0.24024-0.23633-0.069799-0.064429-0.14504-0.12893-0.21484-0.19336-0.080537-0.075167-0.16605-0.14895-0.25195-0.21875-0.075168-0.064429-0.1514-0.12453-0.22656-0.18359-0.085906-0.069798-0.1724-0.1387-0.26367-0.20312-0.075167-0.05906-0.15579-0.11281-0.23633-0.17188-0.091275-0.064429-0.1763-0.13039-0.26758-0.18945l-0.24219-0.16016c-0.091275-0.05906-0.18802-0.11867-0.2793-0.17773-0.080537-0.048322-0.16605-0.096209-0.25195-0.14453l-0.28906-0.16016c-0.08591-0.042953-0.17191-0.091813-0.25781-0.13477-0.09664-0.048322-0.19877-0.09621-0.30078-0.14453-0.08591-0.042953-0.1724-0.081557-0.26367-0.11914l-0.30664-0.12891c-0.085906-0.037584-0.17581-0.069838-0.26172-0.10742-0.10201-0.037584-0.21098-0.075698-0.31836-0.11328-0.091274-0.032215-0.1763-0.062998-0.26758-0.089844l-0.32226-0.097656c-0.09127-0.026846-0.1763-0.052742-0.26758-0.074219-0.03222-0.010738-0.071303-0.016606-0.10352-0.027344zm-12.23 3.9688c-1.6913 2.0403-2.6626 4.5835-2.7539 7.2305h5.1445c0.021476-2.008 0.31026-4.0041 0.86328-5.9316-1.1329-0.30604-2.223-0.74044-3.2539-1.2988zm18.492 0c-1.0309 0.55839-2.121 0.9923-3.2539 1.293 0.55302 1.9275 0.84717 3.9256 0.86328 5.9336h5.1445c-0.091275-2.6416-1.0626-5.1863-2.7539-7.2266zm-14.4 1.5078c-0.53691 1.8631-0.82227 3.7844-0.84375 5.7227h5.5684v-5.1582c-1.5893-0.021476-3.1729-0.21009-4.7246-0.56445zm10.309 0c-1.5517 0.35436-3.1354 0.54298-4.7246 0.56445v5.1582h5.5684c-0.021476-1.9382-0.30684-3.8596-0.84375-5.7227zm-17.154 6.582c0.091275 2.647 1.0626 5.1863 2.7539 7.2266 1.0309-0.55839 2.121-0.9923 3.2539-1.293-0.55302-1.9275-0.84717-3.9256-0.86328-5.9336h-5.1445zm6.002 0c0.021476 1.9382 0.30684 3.8615 0.84375 5.7246 1.5517-0.35436 3.1354-0.54298 4.7246-0.56445v-5.1602h-5.5684zm6.4277 0v5.1602c1.5893 0.02148 3.1729 0.21009 4.7246 0.56445 0.53691-1.8631 0.82227-3.7864 0.84375-5.7246h-5.5684zm6.4258 0c-0.02148 2.008-0.31026 4.0061-0.86328 5.9336 1.1329 0.30067 2.223 0.73458 3.2539 1.293 1.6913-2.0403 2.6626-4.5796 2.7539-7.2266h-5.1445zm-7.2852 6.0137c-1.498 0.021481-2.9913 0.19983-4.457 0.52734 1.0148 2.8295 2.6208 4.7462 4.457 5.0039v-5.5312zm0.85938 0v5.5312c1.8362-0.26309 3.4423-2.1744 4.457-5.0039-1.4658-0.32752-2.9591-0.50587-4.457-0.52734zm-6.1484 0.73047c-1.0201 0.26846-2.0013 0.64959-2.9355 1.1328l0.037109 0.037109c0.053691 0.07517 0.12356 0.13919 0.19336 0.20898 0.080537 0.080539 0.16165 0.15579 0.24219 0.23633 0.069798 0.06443 0.14358 0.12893 0.21875 0.19336 0.080537 0.07517 0.16605 0.1509 0.25195 0.2207 0.075167 0.06443 0.1514 0.12453 0.22656 0.18359 0.085906 0.0698 0.1724 0.1387 0.26367 0.20312 0.075167 0.05906 0.15579 0.11282 0.23633 0.17188 0.091275 0.06443 0.18216 0.12844 0.27344 0.1875l0.24023 0.16211c0.091275 0.05906 0.18802 0.11818 0.2793 0.17188 0.080537 0.04832 0.168 0.096206 0.25391 0.14453l0.28906 0.16016c0.085906 0.04295 0.17191 0.091807 0.25781 0.13476 0.096644 0.04832 0.19877 0.096207 0.30078 0.14453 0.085906 0.04295 0.1724 0.08156 0.26367 0.11914l0.30469 0.12891c0.085906 0.037579 0.17777 0.069839 0.26367 0.10742 0.10201 0.03758 0.20902 0.073747 0.31641 0.11133 0.091275 0.032219 0.17826 0.064956 0.26953 0.091796l0.32227 0.097657c0.091275 0.02685 0.1763 0.052738 0.26758 0.074218 0.032215 0.01074 0.069838 0.016614 0.10742 0.027344-1.2671-1.2349-2.2126-2.7653-2.7441-4.4512zm11.447 0.00586c-0.53154 1.6859-1.4717 3.2163-2.7441 4.4512 0.03222-0.010739 0.071303-0.016603 0.10352-0.027343 0.09664-0.02148 0.18216-0.049322 0.27344-0.076172l0.32227-0.095703c0.09127-0.02685 0.1763-0.059587 0.26758-0.091797 0.10738-0.03758 0.20902-0.0757 0.31641-0.11328 0.09127-0.03222 0.17826-0.06984 0.26953-0.10742l0.30664-0.12695c0.08591-0.03758 0.17581-0.08156 0.26172-0.11914 0.09664-0.04832 0.19828-0.096206 0.29492-0.14453 0.08591-0.04295 0.17191-0.086448 0.25781-0.13477 0.09664-0.05369 0.19388-0.10256 0.28516-0.15625 0.08591-0.04832 0.16605-0.096696 0.25195-0.15039 0.091271-0.059059 0.18802-0.11282 0.2793-0.17187 0.08054-0.05369 0.16751-0.10647 0.24805-0.16016 0.09127-0.05906 0.1763-0.12307 0.26758-0.1875 0.08054-0.05906 0.16116-0.11282 0.23633-0.17188 0.08591-0.06443 0.17191-0.13528 0.25781-0.20508 0.07517-0.05906 0.1514-0.12258 0.22656-0.18164 0.085909-0.069801 0.16605-0.14554 0.25195-0.2207 0.07517-0.06443 0.14504-0.12893 0.21484-0.19336 0.08054-0.07517 0.1597-0.15579 0.24024-0.23633 0.0698-0.0698 0.14114-0.13333 0.21094-0.20312 0.01074-0.01074 0.02638-0.026869 0.03711-0.042969-0.93422-0.48322-1.9227-0.86436-2.9375-1.1328z" fill="#4b4c50" stroke-width=".053691"/>
</svg>
