<?xml version="1.0" encoding="UTF-8"?>
<svg enable-background="new 0 0 93 93" version="1.1" viewBox="0 0 93 93" xmlns="http://www.w3.org/2000/svg">
 <style type="text/css">.st0{fill:#FFFFFF;}</style>
 <path class="st0" d="m22.5 69c-1.1 0-2-0.9-2-2v-49c0-1.1 0.9-2 2-2s2 0.9 2 2v49c0 1.1-0.9 2-2 2z"/>
 <path class="st0" d="m38.5 62c-1.1 0-2-0.9-2-2v-42c0-1.1 0.9-2 2-2s2 0.9 2 2v42c0 1.1-0.9 2-2 2z"/>
 <path class="st0" d="m54.5 62c-1.1 0-2-0.9-2-2v-42c0-1.1 0.9-2 2-2s2 0.9 2 2v42c0 1.1-0.9 2-2 2z"/>
 <path class="st0" d="m70.5 69c-1.1 0-2-0.9-2-2v-49c0-1.1 0.9-2 2-2s2 0.9 2 2v49c0 1.1-0.9 2-2 2z"/>
 <path class="st0" d="m46.5 69.8c-5.5 0-10-4.4-10-9.8 0-1.1 0.9-2 2-2s2 0.9 2 2c0 3.2 2.7 5.8 6 5.8s6-2.6 6-5.8c0-1.1 0.9-2 2-2s2 0.9 2 2c0 5.4-4.5 9.8-10 9.8z"/>
 <path class="st0" d="m54.5 19.7c-1.1 0-2-0.9-2-2 0-7.6-6.3-13.7-14-13.7s-14 6.2-14 13.7c0 1.1-0.9 2-2 2s-2-0.9-2-2c0-9.7 8.1-17.7 18-17.7s18 8 18 17.7c0 1.1-0.9 2-2 2z"/>
 <path class="st0" d="m46.5 93c-14.3 0-26-11.5-26-25.6 0-1.1 0.9-2 2-2s2 0.9 2 2c0 11.9 9.9 21.6 22 21.6s22-9.7 22-21.6c0-1.1 0.9-2 2-2s2 0.9 2 2c0 14.1-11.7 25.6-26 25.6z"/>
</svg>
