<?xml version="1.0" encoding="UTF-8"?>
<svg enable-background="new 0 0 24 24" version="1.1" viewBox="0 0 24 24" xmlns="http://www.w3.org/2000/svg">
 <style type="text/css">.st0{fill:#FFFFFF;}</style>
 <path class="st0" d="m19.6 16.4c0 4.3-3.5 7.6-7.6 7.6s-7.6-3.5-7.6-7.6v-10.3c0-0.8 0.6-1.4 1.4-1.4s1.2 0.6 1.2 1.4v10.3c0 2.7 2.1 5.1 5.1 5.1s5.1-2.1 5.1-5.1v-10.7c0-1.8-1.4-3.1-3.1-3.1s-3.3 1.4-3.3 3.1v9.8c0 0.6 0.6 1.2 1.2 1.2s1.2-0.6 1.2-1.2v-9.4c0-0.8 0.6-1.4 1.4-1.4s1.4 0.6 1.4 1.4v9.4c0 2.1-1.8 3.7-3.7 3.7s-3.7-1.8-3.7-3.7v-9.8c0-3.1 2.5-5.7 5.7-5.7s5.7 2.5 5.7 5.7v10.7h-0.4z"/>
</svg>
