<?xml version="1.0" encoding="utf-8"?>
<!-- Generator: Adobe Illustrator 25.0.0, SVG Export Plug-In . SVG Version: 6.00 Build 0)  -->
<svg version="1.1" id="Layer_1" xmlns="http://www.w3.org/2000/svg" xmlns:xlink="http://www.w3.org/1999/xlink" x="0px" y="0px"
	 viewBox="0 0 24 24" style="enable-background:new 0 0 24 24;" xml:space="preserve">
<style type="text/css">
	.st0{fill:#5A5A5A;}
</style>
<path class="st0" d="M21,0H3.1C1.4,0,0,1.4,0,3.1v17.7C0,22.6,1.4,24,3.1,24h17.8c1.7,0,3.1-1.4,3.1-3.1V3.1C24.1,1.4,22.7,0,21,0z
	 M18.9,17.9c0,0.6-0.5,1-1,1H6.1c-0.6,0-1-0.5-1-1v-5.7c0-0.5,0.3-0.8,0.9-0.8c0.5,0,0.8,0.3,0.8,0.8v5h10.4v-0.7
	c0-0.5,0.3-0.8,0.8-0.8c0.6,0,0.9,0.5,0.9,0.9V17.9z M8.2,13.5H10c0.1,0,0.1,0.1,0.1,0.1v1.8c0,0.1-0.1,0.1-0.1,0.1H8.2
	c-0.1,0-0.1-0.1-0.1-0.1v-1.8C8.1,13.5,8.2,13.5,8.2,13.5z M8.1,12.6v-1.8c0-0.1,0.1-0.1,0.1-0.1H10c0.1,0,0.1,0.1,0.1,0.1v1.8
	c0,0.1-0.1,0.1-0.1,0.1H8.2C8.1,12.7,8.1,12.6,8.1,12.6z M11.1,13.5h1.8c0.1,0,0.1,0.1,0.1,0.1v1.8c0,0.1-0.1,0.1-0.1,0.1h-1.8
	c-0.1,0-0.1-0.1-0.1-0.1v-1.8C11,13.5,11.1,13.5,11.1,13.5z M11,12.6v-1.8c0-0.1,0.1-0.1,0.1-0.1h1.8c0.1,0,0.1,0.1,0.1,0.1v1.8
	c0,0.1-0.1,0.1-0.1,0.1h-1.8C11,12.7,11,12.6,11,12.6z M14,13.5h1.8c0.1,0,0.1,0.1,0.1,0.1v1.8c0,0.1-0.1,0.1-0.1,0.1H14
	c-0.1,0-0.1-0.1-0.1-0.1v-1.8C13.8,13.5,14,13.5,14,13.5z M13.8,12.6v-1.8c0-0.1,0.1-0.1,0.1-0.1h1.8c0.1,0,0.1,0.1,0.1,0.1v1.8
	c0,0.1-0.1,0.1-0.1,0.1H14C13.8,12.7,13.8,12.6,13.8,12.6z M18.9,14.3c0,0.6-0.5,0.9-0.9,0.9c-0.6,0-0.9-0.5-0.9-0.9V8.9H6.7v1
	c0,0.5-0.3,0.8-0.8,0.8s-0.8-0.3-0.8-0.8V6.8c0-0.6,0.5-1,1-1h1.2V5c0-0.6,0.5-1,1-1s1,0.5,1,1v0.8h5.3V5c0-0.6,0.5-1,1-1
	c0.6,0,1,0.5,1,1v0.8h1.2c0.6,0,1,0.5,1,1v7.5H18.9z"/>
</svg>
